<svg width="24" height="24" viewBox="0 0 24 24" fill="none" xmlns="http://www.w3.org/2000/svg">
<path d="M16.0269 5.30066C16.2605 5.48146 16.5189 5.68226 16.7877 5.89026H16.9069C16.9557 6.01266 17.0565 6.03266 17.1733 6.02386C17.1885 6.05266 17.1973 6.10066 17.2197 6.10866C17.3005 6.13586 17.3613 6.19026 17.4317 6.23106C17.5077 6.27586 17.5413 6.34946 17.5901 6.40786C17.6373 6.46466 17.7029 6.50546 17.7365 6.58066C17.7693 6.65506 17.8629 6.70866 17.8789 6.78226C17.8965 6.86386 17.9701 6.91426 17.9757 6.98146C17.9845 7.09346 18.0501 7.19506 18.0269 7.31266C18.0157 7.36866 18.0253 7.42866 18.0253 7.48866C17.9565 7.54786 17.8829 7.58466 17.7869 7.59826C17.5277 7.63586 17.2821 7.88627 17.2381 8.14947C16.9165 8.40147 16.7789 8.78546 16.5997 9.13906C16.5509 9.23586 16.5269 9.35906 16.5061 9.46866C16.4877 9.56706 16.4189 9.64627 16.4157 9.73666C16.4117 9.84146 16.3597 9.91987 16.3205 10.0047C16.2677 10.1199 16.2285 10.2335 16.2341 10.3623C16.2389 10.4839 16.2349 10.6063 16.2349 10.7375C16.2893 10.7375 16.3437 10.7543 16.3725 10.7343C16.5253 10.6279 16.6589 10.7311 16.7749 10.7871C16.9637 10.8791 17.1325 11.0127 17.3093 11.1295C17.3549 11.1599 17.4125 11.1847 17.4421 11.2271C17.6285 11.4967 17.8917 11.6919 18.1077 11.9375C18.1309 12.1255 18.0877 12.3007 17.9821 12.4663C17.8885 12.6135 17.7669 12.7279 17.6301 12.8295C17.5757 12.8703 17.4997 12.8903 17.4605 12.9415C17.3837 13.0423 17.2637 12.9919 17.1725 13.0431C17.1189 13.0727 17.0517 12.9935 16.9749 13.0007C16.9165 13.0063 16.8557 13.0151 16.7885 12.9791C16.7261 12.9447 16.6365 12.9615 16.5533 12.9551C16.3485 12.8359 16.3221 12.8303 15.9013 12.8303C15.8797 12.8031 15.8533 12.7695 15.8365 12.7479C15.6797 12.7255 15.5389 12.7663 15.3981 12.7055C15.3317 12.6767 15.2285 12.6719 15.1541 12.7463C15.0541 12.6711 14.9373 12.7071 14.8261 12.6991C14.7365 12.8095 14.6381 12.7103 14.5589 12.6895C14.4813 12.6695 14.4229 12.6367 14.3469 12.6855C14.3205 12.7023 14.2781 12.7023 14.2437 12.6983C14.1285 12.6847 14.0069 12.6935 13.9173 12.7503C13.8469 12.7943 13.7693 12.6863 13.7261 12.7855C13.5533 12.7567 13.3989 12.8255 13.2173 12.9015C13.1837 12.9351 13.1269 12.9903 13.0709 13.0479C13.0469 13.0727 13.0237 13.0999 13.0053 13.1295C12.9877 13.1575 12.9597 13.1919 12.9637 13.2199C12.9821 13.3655 12.8397 13.4687 12.8701 13.6207C12.8909 13.7255 12.8877 13.8399 12.8717 13.9471C12.8165 14.3039 12.8333 14.6623 12.8301 15.0199C12.8301 15.0463 12.8213 15.0743 12.8093 15.0983C12.7773 15.1591 12.7773 15.2159 12.8101 15.2767C12.8421 15.3351 12.8365 15.3911 12.8077 15.4551C12.7733 15.5319 12.7565 15.6183 12.8133 15.6735C12.8029 15.7327 12.7885 15.7783 12.7885 15.8247C12.7861 16.1375 12.7885 16.4503 12.7861 16.7623C12.7861 16.8151 12.7717 16.8687 12.7597 16.9463C12.7661 16.9839 12.7813 17.0511 12.7861 17.1183C12.7917 17.1903 12.7877 17.2639 12.7877 17.3511C12.8173 17.3671 12.8557 17.3887 12.8549 17.3879C12.9101 17.5207 12.7573 17.6095 12.8741 17.6967L12.7421 17.8287C12.7645 17.9335 12.7125 18.0479 12.7693 18.1591C12.8109 18.2391 12.7917 18.3199 12.7581 18.4079C12.7597 18.4095 12.7853 18.4255 12.7861 18.4423C12.7917 18.5759 12.7877 18.7071 12.8253 18.8407C12.8461 18.9127 12.8581 19.0063 12.7981 19.0879C12.7733 19.1215 12.7861 19.1855 12.7885 19.2351C12.7925 19.2975 12.8093 19.3591 12.8101 19.4215C12.8101 19.4783 12.7925 19.5343 12.7885 19.5919C12.7845 19.6567 12.7877 19.7231 12.7877 19.7879C12.7877 19.8527 12.7789 19.9199 12.7893 19.9839C12.8165 20.1575 12.7181 20.2895 12.6141 20.3887C12.4821 20.5135 12.3125 20.6023 12.1093 20.5983C12.0877 20.5735 12.0637 20.5463 12.0373 20.5151H11.8277C11.6645 20.4135 11.5589 20.2911 11.4893 20.1415C11.3693 20.1023 11.2581 20.0631 11.1957 19.9455C11.1549 19.8687 11.0549 19.8503 11.0101 19.7647C10.9709 19.6911 10.8917 19.6391 10.8245 19.5719C10.8245 19.5199 10.8477 19.4447 10.8205 19.4079C10.7253 19.2839 10.7565 19.1127 10.6645 19.0119C10.6957 18.6335 10.7861 18.2775 10.8349 17.9079C10.9048 17.8705 10.9573 17.802 10.9925 17.7023C11.0213 17.6199 11.0485 17.5375 11.0821 17.4383C11.0821 17.4375 11.0717 17.4199 11.0621 17.4031C11.0845 17.2871 11.1109 17.1711 11.1301 17.0535C11.1429 16.9719 11.1381 16.8919 11.1653 16.8071C11.1909 16.7263 11.1789 16.6207 11.1461 16.5175C11.1037 16.3855 11.1333 16.2311 11.1317 16.0863C11.2061 16.0159 11.1725 15.9247 11.1741 15.8423C11.1781 15.5079 11.1837 15.1735 11.1717 14.8391C11.1669 14.7151 11.2221 14.6063 11.2205 14.4863C11.2181 14.3631 11.2229 14.2391 11.2189 14.1159C11.2165 14.0519 11.1733 13.9679 11.2005 13.9271C11.2573 13.8423 11.1877 13.7959 11.1757 13.7335C11.1629 13.6671 11.1453 13.6015 11.1269 13.5223C11.0813 13.5311 11.0397 13.5319 11.0045 13.5471C10.8381 13.6191 10.6429 13.6191 10.4973 13.7447C10.3309 13.7335 10.1925 13.8255 10.0581 13.8935C9.92693 13.9599 9.78373 14.0095 9.66213 14.0999C9.54213 14.1895 9.41493 14.2719 9.28453 14.3471C9.10213 14.4527 8.93733 14.5847 8.74453 14.6743C8.52213 14.7767 8.30293 14.7775 8.08213 14.6855C7.96933 14.6383 7.86293 14.5823 7.73573 14.5703C7.67253 14.5639 7.61493 14.5143 7.55333 14.4871C7.46693 14.4495 7.36853 14.4287 7.29573 14.3743C7.20773 14.3079 7.10933 14.2951 7.01173 14.2655C6.92293 14.2383 6.84293 14.1823 6.75973 14.1375C6.71813 14.1151 6.66773 14.1007 6.63653 14.0679C6.44613 13.8711 6.21893 13.7303 5.97413 13.6111C5.82773 13.5399 5.80693 13.4143 5.84293 13.2455C5.87013 13.1183 5.92373 13.0007 5.94773 12.8719C5.96853 12.7591 6.02533 12.6351 6.15413 12.5623C6.18293 12.5703 6.22213 12.5807 6.25653 12.5903C6.51253 12.5623 6.76613 12.5175 7.01173 12.4295C7.02853 12.3967 7.04773 12.3599 7.07333 12.3103C7.07333 12.2039 7.07653 12.0799 7.07173 11.9567C7.07013 11.9095 7.16533 11.8927 7.10133 11.8279C7.05653 11.7823 7.13413 11.7383 7.11893 11.6831C7.10613 11.6359 7.11893 11.5815 7.11573 11.5311C7.11173 11.4767 7.12773 11.4231 7.08453 11.3679C7.06213 11.3391 7.09573 11.2679 7.10853 11.1871C7.09573 11.1727 7.06293 11.1375 7.02133 11.0935C7.03333 11.0543 7.04773 11.0095 7.06533 10.9511C6.98373 10.7695 7.05573 10.5583 7.02213 10.3559C6.99733 10.3463 6.97253 10.3359 6.93493 10.3207C6.94853 10.2903 6.96213 10.2607 6.97493 10.2311C6.96533 10.2063 6.95333 10.1759 6.94133 10.1447C6.92933 10.1135 6.91733 10.0831 6.90453 10.0503C6.91413 10.0399 6.92853 10.0239 6.94453 10.0055C6.91813 9.92386 6.84053 9.84227 6.93573 9.75666C6.89493 9.72066 6.91493 9.63346 6.82613 9.63346C6.80613 9.63346 6.76693 9.59106 6.77013 9.57427C6.78693 9.48386 6.71413 9.44946 6.67413 9.39346C6.64773 9.35666 6.63893 9.30707 6.62053 9.25906C6.55493 9.24306 6.47973 9.24946 6.45413 9.14226C6.44373 9.09826 6.34613 9.08866 6.31893 9.00626C6.30133 8.95346 6.21333 8.92386 6.15813 8.88386V8.79506C5.98853 8.67746 5.82053 8.56066 5.63733 8.43266C5.58213 8.29106 5.51413 8.12947 5.45013 7.96707C5.40693 7.85667 5.43733 7.75666 5.41333 7.66386C5.50293 7.54786 5.51973 7.39826 5.63173 7.30786C5.61573 7.14786 5.77333 7.07747 5.81973 6.94707C5.89573 6.91187 5.96533 6.94466 6.03333 6.97986C6.10533 7.01666 6.17893 7.05186 6.24773 7.09346C6.45733 7.21986 6.69893 7.26786 6.91813 7.37026C7.05973 7.33426 7.16613 7.45106 7.29573 7.45826C7.42613 7.46546 7.55733 7.45986 7.70533 7.45986C7.74533 7.49986 7.79493 7.54946 7.84293 7.59746C7.91973 7.55906 7.98773 7.50626 8.05573 7.59106C8.22053 7.58546 8.38613 7.58626 8.55013 7.57106C8.59013 7.56706 8.63333 7.58306 8.68053 7.55266C8.72773 7.52226 8.80133 7.53106 8.86373 7.52386C8.91893 7.51666 8.97653 7.51666 9.03013 7.50306C9.28213 7.43986 9.54613 7.43746 9.79173 7.34146C9.84213 7.32146 9.90533 7.33746 9.96133 7.32866C10.0141 7.31986 10.0677 7.28307 10.1173 7.28947C10.2909 7.31027 10.4605 7.27026 10.6205 7.23266C10.7589 7.20066 10.9165 7.24147 11.0453 7.13187C11.0397 7.11107 11.0333 7.08626 11.0205 7.03986C11.0373 6.96706 11.0885 6.86947 11.0085 6.78947C11.0205 6.69907 11.0437 6.61666 11.0389 6.53586C11.0333 6.44546 10.9653 6.35586 11.0421 6.26626C10.9733 6.11026 11.0101 5.94386 10.9957 5.78306C10.9917 5.74066 10.9469 5.70306 10.9245 5.66066C10.8701 5.55746 10.8565 5.42066 10.8661 5.28386C10.8741 5.16786 10.8765 5.05026 10.8645 4.93506C10.8557 4.84946 10.7869 4.78226 10.7717 4.68866C10.7597 4.61586 10.6741 4.55747 10.6261 4.48947C10.5181 4.33827 10.5197 4.33746 10.5189 4.21106C10.6501 3.84226 10.7909 3.52866 11.1261 3.35986C11.2629 3.40146 11.4053 3.44466 11.5469 3.48786C11.5861 3.49986 11.6245 3.51826 11.6637 3.51986C11.7293 3.52226 11.7949 3.51346 11.9109 3.50626C11.9989 3.53906 12.1189 3.65346 12.2813 3.61506C12.3109 3.64466 12.3365 3.67026 12.3621 3.69586C12.4877 3.72466 12.6157 3.73266 12.7333 3.80066C12.8373 3.86066 12.9557 3.89506 13.0989 3.95346C13.1709 4.02546 13.2677 4.12306 13.3661 4.21986C13.4445 4.29666 13.4917 4.38386 13.4853 4.49826C13.4789 4.61426 13.4829 4.73107 13.4845 4.84707C13.4861 4.95427 13.4445 5.04466 13.3893 5.13506C13.3517 5.19666 13.3149 5.27186 13.3141 5.34146C13.3101 5.58706 13.2517 5.81827 13.1845 6.05187C13.1445 6.19107 13.1509 6.34386 13.1357 6.49026C13.1301 6.54466 13.1397 6.59587 13.1005 6.65187C13.0709 6.69427 13.0949 6.77506 13.0949 6.85586C13.5917 6.77586 14.0749 6.69746 14.5725 6.61666C14.6501 6.56386 14.7381 6.49746 14.8317 6.44066C14.9181 6.38866 15.0261 6.38466 15.1029 6.30306C15.1637 6.23826 15.2477 6.19507 15.3325 6.13427C15.3117 6.05507 15.2877 5.98386 15.2757 5.91106C15.2637 5.83426 15.2709 5.75666 15.3589 5.66786C15.5517 5.56306 15.7197 5.33187 16.0253 5.29427L16.0269 5.30066ZM11.0669 8.94786C10.9389 8.94786 10.7989 8.91826 10.6813 8.95667C10.5765 8.99107 10.4669 8.98547 10.3637 9.02947C10.2925 9.05907 10.2037 9.04546 10.1213 9.07346C10.0397 9.10146 9.94453 9.10386 9.85733 9.11506C9.61733 9.14626 9.39813 9.23266 9.17493 9.30626C9.12293 9.46146 9.07733 9.61026 9.07733 9.77346C9.07733 9.94226 9.10933 10.1143 9.03893 10.2791C9.02933 10.3007 9.05973 10.3399 9.06693 10.3583C9.05573 10.4039 9.04053 10.4423 9.03733 10.4815C9.02053 10.6927 9.05893 10.9055 8.99893 11.1183C8.96373 11.2423 9.00933 11.3855 8.94933 11.5119C9.02533 11.6343 8.97653 11.7743 8.99813 11.8983C9.10213 12.0207 9.25733 11.9887 9.37333 12.0551C9.43413 12.0223 9.48773 11.9935 9.52933 11.9711C9.57413 11.9831 9.62613 12.0135 9.64933 11.9991C9.76133 11.9295 9.87813 11.9023 10.0077 11.9151C10.0741 11.8391 10.1741 11.8999 10.2453 11.8591C10.3253 11.8135 10.4053 11.7919 10.4965 11.7767C10.5845 11.7623 10.6709 11.7343 10.7565 11.7407C10.8981 11.6471 11.0357 11.5559 11.1621 11.4719C11.1469 11.4191 11.1349 11.3751 11.1229 11.3351C11.1589 11.2967 11.1885 11.2663 11.2173 11.2359C11.2173 10.9151 11.2173 10.5959 11.2173 10.2767C11.2173 10.2279 11.2253 10.1623 11.1981 10.1343C11.1349 10.0687 11.2437 9.99426 11.1741 9.93906C11.2469 9.78386 11.2325 9.63186 11.1773 9.47346C11.1461 9.38386 11.1325 9.28306 11.1341 9.18786C11.1357 9.09826 11.1053 9.02626 11.0669 8.94786ZM13.1973 11.3983C13.4237 11.3799 13.6285 11.3639 13.8325 11.3479C13.8397 11.3479 13.8509 11.3511 13.8533 11.3479C13.9157 11.2591 14.0213 11.3415 14.0901 11.2887C14.1693 11.2279 14.2581 11.2815 14.3181 11.2631C14.3861 11.2031 14.4397 11.1551 14.4933 11.1071C14.4933 11.0599 14.4765 11.0071 14.4957 10.9759C14.6181 10.7751 14.6413 10.5519 14.6669 10.3263C14.6757 10.2487 14.7141 10.1743 14.7397 10.0951C14.7309 10.0815 14.7157 10.0591 14.6893 10.0207C14.7309 9.99506 14.7677 9.97186 14.7773 9.96626C14.8229 9.84946 14.7701 9.75906 14.8301 9.66626C14.8773 9.59186 14.8109 9.47107 14.8829 9.38467C14.8349 9.30307 14.8197 9.21826 14.8557 9.12626C14.8685 9.09506 14.8749 9.06146 14.8821 9.02866C14.8973 8.95506 14.9173 8.88147 14.9245 8.80707C14.9317 8.72787 14.9213 8.64706 14.9285 8.56786C14.9317 8.52946 14.9565 8.49266 14.9709 8.45746C14.9461 8.41506 14.9229 8.37586 14.8957 8.33026C14.6925 8.34706 14.4885 8.36386 14.2837 8.37986C14.2765 8.37986 14.2685 8.37826 14.2621 8.37986C14.0981 8.44066 13.9269 8.45827 13.7533 8.46707C13.7317 8.46787 13.7013 8.45826 13.6893 8.46866C13.6013 8.54626 13.4877 8.47666 13.4037 8.51586C13.3061 8.56146 13.2117 8.54786 13.1317 8.55427C13.0813 8.57986 13.0453 8.59826 13.0173 8.61266C12.9077 8.81826 12.8693 9.03426 12.8765 9.25826C12.8949 9.87586 12.8301 10.4959 12.9269 11.1279C13.0093 11.2103 13.1013 11.3015 13.1973 11.3975V11.3983Z" fill="#242424"/>
</svg>
