<svg width="24" height="24" viewBox="0 0 24 24" fill="none" xmlns="http://www.w3.org/2000/svg">
<path d="M4.39889 17.8923C4.42449 17.9147 4.43969 17.9275 4.47009 17.9547C4.48049 17.8019 4.35969 17.6595 4.45329 17.5427C4.42449 17.4187 4.39809 17.3059 4.37329 17.2011C4.41649 17.1515 4.44849 17.1155 4.47969 17.0795C4.45169 17.0251 4.42689 16.9771 4.40129 16.9267C4.45409 16.8339 4.41969 16.7275 4.43089 16.6363C4.52049 16.5043 4.60529 16.3795 4.69489 16.2475C4.66369 16.1867 4.63009 16.1211 4.59489 16.0515C4.61889 15.9987 4.64049 15.9491 4.68289 15.8547C4.70209 15.8971 4.72049 15.9219 4.72209 15.9475C4.72849 16.0387 4.77489 16.1027 4.83889 16.1467C4.86769 16.1139 4.89569 16.0827 4.95249 16.0195V15.8539H5.03809C5.05009 16.0315 5.01489 16.2123 5.08689 16.3787C5.10849 16.4283 5.15649 16.4659 5.17729 16.4907C5.31169 16.5275 5.42289 16.5571 5.53729 16.5891C5.55489 16.5771 5.57729 16.5611 5.60289 16.5435C5.65729 16.5731 5.71089 16.6027 5.77809 16.6387C5.82769 16.6387 5.87409 16.5555 5.95649 16.6067C6.00449 16.6371 6.07809 16.6275 6.14049 16.6355C6.20769 16.6443 6.27569 16.6523 6.37729 16.6659C6.41009 16.6539 6.47969 16.6275 6.55089 16.6011C6.60609 16.6739 6.69329 16.6147 6.74929 16.6363C6.80449 16.6067 6.84609 16.5851 6.89169 16.5603C6.99409 16.6387 7.07409 16.5659 7.16289 16.5067C7.26609 16.4947 7.37489 16.5011 7.48849 16.4723C7.60209 16.4435 7.69489 16.4027 7.77889 16.3251C7.81249 16.3435 7.84209 16.3595 7.88529 16.3835C7.91889 16.3339 7.95489 16.2811 7.98609 16.2355C8.09329 16.2555 8.17169 16.2179 8.25009 16.2843C8.29809 16.2131 8.42689 16.2443 8.45169 16.1211H8.64529C8.73409 16.0787 8.78769 16.0507 8.84369 16.0267C8.86209 16.0187 8.89809 16.0299 8.90449 16.0195C8.98449 15.8859 9.14849 15.8955 9.25489 15.8083C9.28049 15.7875 9.31809 15.7803 9.34209 15.7579C9.42129 15.6835 9.48529 15.5803 9.57809 15.5339C9.67409 15.4867 9.67889 15.3483 9.80049 15.3443C9.91569 15.1955 10.0293 15.0459 10.1453 14.8987C10.2213 14.8027 10.3125 14.7163 10.3213 14.5819C10.3229 14.5587 10.3493 14.5347 10.3685 14.5155C10.4237 14.4579 10.4813 14.4027 10.5373 14.3483V14.1131C10.3149 14.0915 10.0909 14.0691 9.87809 14.0483C9.83409 14.0907 9.80289 14.1203 9.78689 14.1347C9.70209 14.1547 9.63569 14.1699 9.55809 14.1875C9.53569 14.1531 9.50689 14.1091 9.47889 14.0651C9.44689 14.0835 9.41889 14.0987 9.39009 14.1147C9.34609 14.0131 9.25569 13.9499 9.26529 13.8267C9.26929 13.7739 9.18849 13.7171 9.15569 13.6571C9.14369 13.6347 9.15969 13.5979 9.16529 13.5387C9.13089 13.4843 9.08049 13.4043 9.03009 13.3243C9.02289 13.3267 9.01489 13.3283 9.00769 13.3307C9.01729 13.3811 9.02609 13.4315 9.04129 13.5107C9.03329 13.5427 9.01649 13.6091 8.99969 13.6795C9.05489 13.7251 9.10449 13.7667 9.12929 13.7875C9.15569 13.9387 9.17569 14.0547 9.19649 14.1707C9.18609 14.1699 9.17569 14.1683 9.16449 14.1675C9.13649 14.2571 9.10769 14.3475 9.07729 14.4435C8.91809 14.4771 8.95649 14.6955 8.80929 14.7539C8.79969 14.7451 8.78449 14.7315 8.76929 14.7187C8.75409 14.7323 8.73889 14.7451 8.72529 14.7571C8.70689 14.7419 8.69089 14.7283 8.69089 14.7283C8.57969 14.7443 8.48369 14.7579 8.38929 14.7715C8.28529 14.6835 8.19649 14.5899 8.09089 14.5235C7.97169 14.4483 7.98609 14.2923 7.87409 14.2155C7.87809 14.1187 7.87649 14.0235 7.81729 13.9355C7.79249 13.8987 7.78609 13.8419 7.78929 13.7963C7.80449 13.5827 7.74449 13.3859 7.67729 13.1875C7.63409 13.0595 7.62049 12.9227 7.57089 12.7955C7.51249 12.6451 7.45489 12.4939 7.40049 12.3427C7.28289 12.0195 7.15809 11.6987 7.08209 11.3603C7.06049 11.2627 7.05329 11.1683 7.04449 11.0723C7.02849 11.0563 7.01329 11.0411 6.98209 11.0099H6.83889C6.80609 10.8779 6.83809 10.7755 6.91169 10.6795C6.92289 10.4731 6.92289 10.2659 6.79809 10.0779C6.76689 10.0315 6.75889 9.95466 6.81569 9.90666C6.80209 9.86106 6.78929 9.81785 6.77329 9.76505C6.82369 9.73305 6.86929 9.70345 6.91329 9.67545C6.84689 9.62985 6.87729 9.56105 6.87249 9.48025C6.89809 9.46265 6.93329 9.43786 6.97329 9.40906C6.95249 9.37545 6.93809 9.35225 6.91809 9.31865C6.94049 9.30345 6.96929 9.28426 6.98529 9.27385C7.00929 9.08505 7.02609 9.05705 7.18529 8.92585C7.30209 8.85705 7.42289 8.99066 7.56529 8.93226C7.57889 8.94506 7.61329 8.97546 7.65729 9.01466C7.69729 8.97786 7.73249 8.94586 7.77169 8.90986C7.78129 8.93786 7.79089 8.96345 7.80129 8.99385H7.90289C7.92769 8.96905 7.95409 8.94265 7.97169 8.92505C8.01489 8.93625 8.06369 8.96586 8.08769 8.95226C8.18849 8.89386 8.29489 8.92026 8.39889 8.91146C8.53089 8.90025 8.66289 8.87625 8.79569 8.87065C8.92209 8.86585 9.03809 8.83145 9.15569 8.79065C9.25889 8.75545 9.37729 8.81146 9.47889 8.74746C9.55329 8.84186 9.60929 8.70825 9.68849 8.73145C9.75489 8.75066 9.83649 8.75546 9.91249 8.69946C9.95489 8.66826 10.0397 8.69705 10.1045 8.69305C10.1869 8.68745 10.2741 8.71865 10.3509 8.65305C10.3717 8.63545 10.4293 8.63705 10.4565 8.65305C10.6061 8.73945 10.7637 8.66986 10.8989 8.69466C10.9397 8.63626 10.9717 8.59065 11.0133 8.53065V8.17785C10.7069 8.13865 10.4157 8.24345 10.1173 8.26345C10.0917 8.28905 10.0661 8.31465 10.0325 8.34825C9.94769 8.34425 9.85249 8.35146 9.76369 8.33145C9.60449 8.29626 9.53489 8.29306 9.39569 8.32906C9.29649 8.35466 9.19409 8.38265 9.09329 8.38585C8.95249 8.39065 8.82369 8.43625 8.68929 8.46265C8.53329 8.49385 8.38209 8.51625 8.24369 8.60265C8.21169 8.62265 8.14689 8.58426 8.09729 8.58426C8.05009 8.58426 8.00289 8.60265 7.95489 8.60666C7.88609 8.61226 7.82209 8.61145 7.75249 8.64585C7.66129 8.69065 7.55329 8.70345 7.44609 8.69625C7.33009 8.68905 7.21329 8.68905 7.09729 8.69625C6.99409 8.70265 6.88769 8.71306 6.78929 8.74186C6.72929 8.75946 6.67489 8.78506 6.61009 8.78186C6.54529 8.77866 6.47969 8.78186 6.46369 8.78186C6.21009 8.72106 6.21889 8.49385 6.09329 8.36825V8.00585C6.11809 8.00105 6.13729 7.99625 6.16609 7.99065V7.80505C6.19969 7.77705 6.22689 7.75306 6.25809 7.72666C6.26049 7.67626 6.26289 7.62745 6.26529 7.57865C6.31649 7.52745 6.36849 7.47545 6.41009 7.43385C6.52689 7.14105 6.63969 6.85946 6.71249 6.54426C6.86529 6.56666 7.02209 6.56906 7.16449 6.61466C7.32209 6.66506 7.47729 6.62425 7.63169 6.64345C7.68609 6.57145 7.76449 6.61066 7.83169 6.59946C8.02129 6.56746 8.21169 6.54185 8.39809 6.49305C8.50369 6.46505 8.61089 6.43866 8.71969 6.42666C8.99169 6.39626 9.26369 6.43385 9.52849 6.47785C9.67809 6.50265 9.83409 6.53545 9.98289 6.58585C10.0549 6.60985 10.1389 6.60185 10.2173 6.59865C10.4661 6.58745 10.7141 6.57306 10.9629 6.55385C11.0077 6.55065 11.0501 6.52025 11.1013 6.49865V6.32025C11.1517 6.28985 11.1925 6.26586 11.2285 6.24426C11.2317 6.22106 11.2405 6.19946 11.2349 6.19466C11.1845 6.15066 11.1925 6.09306 11.1925 6.03706C11.1925 5.86266 11.1941 5.68825 11.1909 5.51385C11.1909 5.47465 11.1725 5.43626 11.1629 5.39946C11.1717 5.36506 11.2029 5.31305 11.1885 5.29065C11.1373 5.21145 11.1557 5.12746 11.1469 5.04426C11.1365 4.94106 11.1669 4.83946 11.1117 4.73146C11.0669 4.64506 11.1261 4.52585 11.0653 4.42345C11.0325 4.36905 11.0917 4.28026 11.0149 4.21946C11.0829 4.17066 11.1493 4.12346 11.2181 4.07466C11.2229 4.07866 11.2325 4.09545 11.2437 4.09625C11.4661 4.11385 11.6877 4.15466 11.8933 4.00746C11.9773 3.94746 12.0965 3.93865 12.1925 3.89065C12.2461 3.86425 12.3325 3.86585 12.3381 3.76025C12.3781 3.79545 12.4125 3.82425 12.4525 3.85865C12.4765 3.84265 12.4997 3.82826 12.5237 3.81226C12.5661 3.86026 12.6117 3.86666 12.6557 3.80666C12.7285 3.87946 12.8005 3.95145 12.8821 4.03305C12.9629 3.95465 13.0509 3.97705 13.1413 4.03865C13.1741 4.17625 13.2637 4.28905 13.3701 4.39065C13.3013 4.46265 13.3445 4.55226 13.3301 4.63226C13.3157 4.71306 13.2949 4.79305 13.2733 4.88825C13.2293 4.93225 13.1725 4.98905 13.1157 5.04585C13.1205 5.04905 13.1253 5.05225 13.1301 5.05625C13.0949 5.12025 13.0573 5.18346 13.0253 5.24906C12.9957 5.30906 12.9613 5.37066 12.9485 5.43466C12.9333 5.51146 12.9589 5.59945 12.9317 5.66825C12.9053 5.73385 12.9533 5.79625 12.9229 5.84585C12.8757 5.92185 12.8741 6.00185 12.9125 6.06585C12.9557 6.13705 12.9197 6.20665 12.9429 6.27625C13.0397 6.34985 13.1229 6.23066 13.2181 6.24986C13.2573 6.18906 13.3189 6.20586 13.3749 6.20666C13.4525 6.20826 13.5293 6.20905 13.5965 6.16265C13.6645 6.23225 13.7293 6.14425 13.8013 6.15865C13.8741 6.17305 13.9573 6.17785 14.0221 6.11865C14.1757 6.14185 14.3293 6.08986 14.4869 6.15466C14.6053 6.20346 14.7469 6.19465 14.8741 6.21065C14.9053 6.17945 14.9317 6.15306 14.9549 6.12986C15.3653 6.25386 15.7845 6.33306 16.2253 6.41385C16.3197 6.31545 16.4261 6.40985 16.5221 6.45785C16.6861 6.53945 16.8397 6.64346 16.9997 6.73946C16.9189 6.82106 17.0309 6.87546 16.9973 6.93946C17.0317 6.94826 17.0509 6.95385 17.0797 6.96105C17.0653 6.98345 17.0517 7.00265 17.0349 7.02825C17.0509 7.06105 17.0693 7.09705 17.0869 7.13385C17.0701 7.15385 17.0565 7.16985 17.0389 7.19065C17.1917 7.31145 17.0709 7.51146 17.1693 7.65226C17.1013 7.83546 16.9397 7.92825 16.7845 8.04105C16.7229 8.05065 16.6373 8.00985 16.5757 8.08345C16.4477 8.07305 16.3325 8.14906 16.2005 8.13145C16.1301 8.12185 16.0437 8.18505 15.9813 8.16505C15.8053 8.10905 15.6237 8.15785 15.4533 8.12105C15.2509 8.07785 15.0573 7.99226 14.8357 7.91706C14.8389 7.91546 14.8157 7.92986 14.7901 7.94666C14.7789 7.93706 14.7645 7.92425 14.7485 7.91065C14.7333 7.92425 14.7181 7.93785 14.6941 7.96025C14.6685 7.94425 14.6397 7.92665 14.6141 7.91146C14.4461 7.94826 14.2781 7.98106 14.1133 8.02186C14.0157 8.04666 13.9173 8.05946 13.8253 8.11946C13.7733 8.15306 13.6701 8.12905 13.5989 8.10505C13.5485 8.08745 13.5141 8.08105 13.4629 8.10025C13.3885 8.12825 13.3141 8.16025 13.2237 8.13545C13.1725 8.12185 13.0861 8.18746 13.0525 8.16426C12.9901 8.12026 12.9325 8.13065 12.8581 8.12825C12.7213 8.34745 12.6813 8.59466 12.6725 8.87226C12.7765 8.85386 12.8717 8.89945 12.9653 8.82825C12.9925 8.80745 13.0501 8.82505 13.0941 8.82505C13.3125 8.82505 13.5301 8.82825 13.7485 8.82345C13.8165 8.82185 13.8837 8.84186 13.9573 8.79946C14.0013 8.77386 14.0853 8.81066 14.1485 8.82666C14.3021 8.86586 14.4645 8.84826 14.6165 8.90666C14.6733 8.92826 14.7453 8.91625 14.8101 8.91146C14.8701 8.90665 14.9293 8.89145 15.0029 8.87785C15.0629 8.91385 15.1381 8.94826 15.2309 8.87385C15.4141 9.02905 15.6613 9.06185 15.9077 9.17145H16.2317C16.2573 9.20666 16.2845 9.24425 16.3253 9.30025C16.4157 9.32425 16.5141 9.38026 16.5589 9.53946C16.5589 9.58186 16.5581 9.66105 16.5589 9.74105C16.5589 9.79625 16.5741 9.84585 16.5957 9.90025C16.6413 10.0187 16.6517 10.1491 16.7101 10.2675C16.7661 10.3827 16.7813 10.5163 16.8093 10.6387C16.8333 10.7427 16.8829 10.8547 16.8629 10.9667C16.8309 11.1435 16.8157 11.3267 16.7677 11.4955C16.7205 11.6587 16.6189 11.8139 16.5093 11.9547C16.3549 12.1539 16.1773 12.3299 15.9981 12.5059C15.8677 12.6339 15.7733 12.7867 15.6869 12.9443C15.6013 13.1003 15.5885 13.1123 15.4013 13.1867C15.4413 13.2075 15.4677 13.2179 15.4901 13.2339C15.5133 13.2507 15.5317 13.2739 15.5485 13.2907C15.5189 13.3515 15.4893 13.4107 15.4621 13.4659C15.4805 13.4843 15.4909 13.4947 15.5013 13.5051C15.4717 13.6443 15.3077 13.7195 15.3437 13.9035C15.3053 13.8723 15.2901 13.8603 15.2781 13.8499C15.2285 13.8843 15.1789 13.9187 15.1277 13.9539C15.1501 13.9651 15.1781 13.9787 15.2253 14.0019C15.1141 14.0515 15.0173 14.0947 14.8933 14.1499C14.7173 14.1651 14.5189 14.0683 14.3101 14.1051C14.2237 14.0339 14.0781 14.1027 14.0157 13.9835C13.9525 14.0067 13.8917 14.0299 13.8253 14.0539C13.8173 14.0467 13.8021 14.0331 13.7869 14.0195C13.7661 14.0403 13.7453 14.0611 13.7221 14.0843C13.8261 14.1683 13.8933 14.2939 14.0277 14.3435C14.0693 14.4635 14.2357 14.4779 14.2565 14.6155C14.4085 14.7459 14.5237 14.9131 14.6973 15.0235C14.8437 15.1163 14.9709 15.2387 15.1133 15.3387C15.2797 15.4563 15.4421 15.5803 15.6453 15.6347C15.7085 15.6515 15.7645 15.7003 15.8181 15.7427C15.8693 15.7835 15.9045 15.8507 15.9597 15.8755C16.0157 15.9011 16.0285 15.9515 16.0661 15.9819C16.1165 16.0227 16.1861 16.0403 16.2469 16.0683C16.2645 16.0763 16.2845 16.0827 16.2973 16.0963C16.3045 16.1043 16.3005 16.1235 16.3029 16.1475C16.3701 16.1547 16.4381 16.1803 16.4957 16.1115C16.5213 16.1379 16.5461 16.1635 16.5781 16.1963H16.7661C16.7725 16.2227 16.7773 16.2419 16.7861 16.2787C16.8317 16.2811 16.8853 16.2843 16.9357 16.2875C16.9485 16.2539 16.9581 16.2291 16.9733 16.1891C17.0029 16.2299 17.0269 16.2643 17.0525 16.2995C17.0901 16.2403 17.1189 16.1947 17.1525 16.1427C17.2525 16.1907 17.3437 16.2347 17.4525 16.2875C17.5157 16.2667 17.5981 16.2395 17.6845 16.2115C17.6901 16.2267 17.6989 16.2523 17.7101 16.2835C17.7317 16.2699 17.7661 16.2411 17.7709 16.2459C17.8429 16.3107 17.9157 16.2235 17.9941 16.2539C18.1701 16.3211 18.3517 16.2995 18.5565 16.2467C18.5669 16.2659 18.5885 16.3035 18.6109 16.3427C18.6725 16.2747 18.7341 16.3275 18.7917 16.2931C18.8405 16.2643 18.9189 16.2875 18.9773 16.2875C19.1133 16.2123 19.2125 16.0851 19.3861 16.0739C19.3901 16.0923 19.3949 16.1163 19.4005 16.1467C19.3509 16.1539 19.3101 16.1603 19.2677 16.1667C19.2701 16.1939 19.2717 16.2139 19.2741 16.2531C19.3461 16.2219 19.4093 16.1939 19.4725 16.1667C19.4829 16.1771 19.4933 16.1875 19.5069 16.2011C19.5213 16.1707 19.5349 16.1427 19.5533 16.1035C19.5845 16.1211 19.6125 16.1371 19.6389 16.1515C19.6653 16.1115 19.6933 16.0691 19.7269 16.0187C19.7429 16.0587 19.7525 16.0835 19.7693 16.1267C19.8125 16.0691 19.8493 16.0195 19.9053 15.9451C19.9181 16.0235 19.9245 16.0635 19.9309 16.1035C20.0045 16.1275 20.0637 16.1035 20.1309 16.0731C20.2853 16.0027 20.4301 15.9163 20.5765 15.8315C20.5981 15.8195 20.6229 15.8123 20.6629 15.7971C20.6421 15.8523 20.6389 15.8963 20.6157 15.9203C20.4709 16.0659 20.4517 16.2611 20.4037 16.4443C20.3629 16.6027 20.2797 16.7419 20.2165 16.8907C20.2005 16.9283 20.1885 16.9667 20.1693 17.0171C20.1445 17.0331 20.0805 17.0515 20.0685 17.0867C20.0173 17.2443 19.8933 17.3395 19.7869 17.4499C19.7429 17.4955 19.6925 17.5307 19.7005 17.6123C19.7053 17.6627 19.5741 17.7883 19.4805 17.8411C19.3341 17.9243 19.1829 18.0003 19.0325 18.0763C18.9189 18.1339 18.8069 18.2019 18.6861 18.2395C18.5717 18.2747 18.4949 18.3499 18.4173 18.4259C18.2157 18.4067 18.0773 18.5651 17.8965 18.6003C17.8813 18.5859 17.8653 18.5715 17.8677 18.5739C17.8117 18.5795 17.7709 18.5835 17.7309 18.5875C17.7301 18.5795 17.7285 18.5715 17.7277 18.5635C17.6997 18.5771 17.6717 18.5907 17.6221 18.6155C17.5933 18.5787 17.5605 18.5403 17.5317 18.4995C17.4301 18.3563 17.2589 18.3107 17.1261 18.2115C16.9397 18.0731 16.7197 17.9827 16.5461 17.8227C16.5293 17.8075 16.4909 17.8155 16.4501 17.8115C16.3405 17.6507 16.1437 17.5955 15.9741 17.5211C15.7613 17.4275 15.6085 17.2555 15.4053 17.1579C15.3549 16.9963 15.1877 16.9635 15.0733 16.8579C15.0877 16.8363 15.1029 16.8131 15.1293 16.7731C15.0373 16.7371 14.9453 16.7019 14.8077 16.6483C14.2245 16.1523 13.5613 15.6755 12.9101 15.1707C12.8965 15.1763 12.8629 15.1891 12.7869 15.2187C12.8253 15.1667 12.8357 15.1531 12.8589 15.1227C12.8365 15.1075 12.8101 15.0907 12.7837 15.0731L12.7525 15.1043C12.6757 15.0707 12.6461 14.9459 12.5237 14.9827C12.5085 15.0483 12.4925 15.1195 12.4725 15.2051C12.5405 15.3139 12.4605 15.4699 12.5165 15.5811C12.5773 15.7027 12.4861 15.8427 12.6277 15.9523C12.5741 15.9811 12.5349 16.0011 12.5149 16.0123C12.5149 16.2203 12.5141 16.3995 12.5165 16.5795C12.5165 16.5955 12.5413 16.6115 12.5597 16.6339C12.5437 16.6579 12.5277 16.6803 12.5133 16.7019C12.5309 16.7931 12.5485 16.8867 12.5685 16.9915C12.5861 16.9555 12.5989 16.9291 12.6197 16.8851C12.6501 16.9803 12.6309 17.0627 12.6397 17.1483C12.6141 17.1539 12.5941 17.1587 12.5677 17.1651C12.5333 17.2515 12.4557 17.3355 12.5453 17.4443C12.5669 17.4707 12.5677 17.5435 12.5469 17.5683C12.5013 17.6227 12.4925 17.6611 12.5469 17.7083C12.4701 17.7563 12.5325 17.7987 12.5461 17.8491C12.5573 17.8915 12.5341 17.9435 12.5261 17.9907C12.5197 18.0315 12.5037 18.0731 12.5085 18.1131C12.5141 18.1659 12.5637 18.2363 12.5437 18.2659C12.5045 18.3235 12.4933 18.3595 12.5461 18.4067C12.4645 18.5011 12.5165 18.6139 12.5077 18.7171C12.4989 18.8251 12.5029 18.9355 12.5077 19.0443C12.5093 19.0835 12.5293 19.1211 12.5325 19.1315C12.5221 19.2523 12.5125 19.3483 12.5069 19.4443C12.5013 19.5371 12.5229 19.6403 12.4893 19.7203C12.4461 19.8219 12.4829 19.9187 12.4581 20.0179C12.3965 20.0811 12.3309 20.1475 12.2541 20.2259C12.0413 20.1379 11.8133 20.1163 11.5797 20.1227C11.5005 20.1251 11.4149 20.1019 11.3421 20.0683C11.2789 20.0395 11.2061 20.0163 11.1845 19.9211C11.1637 19.8299 11.1045 19.7467 11.1117 19.6467C11.1165 19.5819 11.0973 19.5259 11.0701 19.4675C11.0445 19.4123 11.0677 19.3491 11.0421 19.2827C11.0085 19.1939 11.0293 19.0851 11.0229 18.9851C11.0181 18.9107 11.0061 18.8371 10.9941 18.7427C10.9973 18.7411 11.0197 18.7315 11.0501 18.7187C11.0653 18.6579 11.0837 18.5859 11.1053 18.5003C11.0965 18.4779 11.0605 18.4331 11.0709 18.4043C11.1517 18.1731 11.0709 17.9307 11.1165 17.7027C11.1741 17.4099 11.1461 17.1179 11.1533 16.8251C11.1605 16.5275 11.1637 16.2283 11.1517 15.9307C11.1445 15.7603 11.1029 15.5915 11.0709 15.3811C10.8901 15.5923 10.6925 15.7291 10.5605 15.9355C10.5141 16.0083 10.4165 16.0451 10.3525 16.1091C10.1653 16.2931 9.96369 16.4579 9.75569 16.6179C9.52369 16.7979 9.40849 17.0643 9.28369 17.3163C9.16929 17.5467 9.07649 17.7347 8.91969 17.8387C8.86049 17.8779 8.79649 17.9115 8.75729 17.9675C8.66049 18.1075 8.55889 18.2387 8.40449 18.3203C8.37969 18.3331 8.37409 18.3787 8.35649 18.4075C8.29569 18.5091 8.23649 18.6123 8.11329 18.6539C8.10209 18.6579 8.10049 18.6907 8.09169 18.7203C7.99089 18.7371 7.88289 18.7619 7.77409 18.7707C7.65809 18.7795 7.54129 18.7731 7.47809 18.7731C7.34209 18.7123 7.25009 18.6715 7.16049 18.6315C7.05889 18.6795 6.99409 18.7691 6.87969 18.7755C6.78369 18.7811 6.69329 18.8347 6.59249 18.8163C6.54049 18.8067 6.50129 18.8435 6.45649 18.8555C6.35809 18.8819 6.24049 18.9187 6.15489 18.8867C6.05169 18.8483 5.95329 18.8899 5.86209 18.8579C5.69169 18.7971 5.51409 18.7515 5.35329 18.6643C5.26369 18.6155 5.17889 18.5595 5.08929 18.5123C5.00609 18.4675 4.90929 18.4531 4.83729 18.3819C4.76209 18.3067 4.68849 18.2179 4.59489 18.1779C4.48449 18.1299 4.44929 18.0387 4.39329 17.9547C4.38769 17.9467 4.39729 17.9283 4.40449 17.8939L4.39889 17.8923ZM13.1389 12.9275C13.1685 12.9227 13.2157 12.9291 13.2341 12.9099C13.2725 12.8691 13.3445 12.8723 13.3501 12.8843C13.3829 12.9531 13.4261 12.8843 13.4645 12.8995C13.5141 12.9195 13.5733 12.9203 13.6285 12.9251C13.6789 12.9291 13.7301 12.9251 13.7813 12.9259C13.8509 12.9275 13.9197 12.9307 13.9893 12.9331C13.9893 12.9419 13.9893 12.9507 13.9893 12.9603C13.9173 12.9667 13.8453 12.9739 13.7389 12.9835C13.8389 13.0163 13.9029 13.0371 13.9565 13.0547C13.9997 13.0323 14.0357 13.0131 14.0829 12.9883C14.0637 12.8915 14.0437 12.7907 14.0213 12.6763C13.9997 12.6523 13.9661 12.6171 13.9165 12.5627C13.9629 12.5395 13.9949 12.5235 14.0277 12.5067C14.0221 12.4979 14.0157 12.4899 14.0101 12.4811H14.2045C14.2213 12.4459 14.2429 12.4171 14.2493 12.3851C14.2853 12.1915 14.3581 12.0083 14.4173 11.8219C14.4845 11.6107 14.5701 11.4059 14.6421 11.1955C14.7101 10.9979 14.7821 10.8027 14.8789 10.6179C14.9645 10.4547 15.0181 10.2875 14.9797 10.0811C14.8989 10.0699 14.8117 10.0499 14.7237 10.0467C14.6429 10.0435 14.5557 10.0203 14.4829 10.0811C14.2893 10.0027 14.0997 10.0427 13.9109 10.0995C13.8605 10.1971 13.8597 10.1963 13.7893 10.2195C13.6309 10.2699 13.4661 10.2947 13.3021 10.3043C13.1005 10.3155 12.8973 10.3067 12.7013 10.3067C12.6101 10.3899 12.6349 10.5067 12.6021 10.6011C12.5709 10.6915 12.6285 10.8123 12.6485 10.9267C12.7765 10.9075 12.8933 10.8835 13.0109 10.8755C13.1341 10.8667 13.2581 10.8795 13.3813 10.8723C13.5637 10.8611 13.7453 10.8411 13.9093 10.8259C14.1973 11.0555 14.3317 11.3331 14.2885 11.6859C14.2469 11.7475 14.2045 11.8099 14.1565 11.8811V11.9939C13.9757 12.0515 13.8029 12.0859 13.6229 12.0107C13.5645 11.9859 13.4821 11.9611 13.4325 11.9835C13.3461 12.0235 13.2461 11.9707 13.1853 12.0139C13.0997 12.0747 13.0181 12.0323 12.9381 12.0523C12.9141 12.0587 12.8933 12.0771 12.8821 12.0835C12.8133 12.0595 12.7525 12.0387 12.6933 12.0187C12.6781 12.0299 12.6653 12.0395 12.6533 12.0483C12.6349 12.0291 12.6245 12.0187 12.6197 12.0131C12.5813 12.0331 12.5453 12.0515 12.5037 12.0731C12.4853 12.1483 12.4805 12.2347 12.4437 12.3043C12.3989 12.3891 12.4389 12.4755 12.4157 12.5547C12.3925 12.6331 12.4693 12.7027 12.4245 12.7779C12.6037 12.9083 12.8285 12.7683 12.9997 12.8835C13.0261 12.8627 13.0405 12.8515 13.0541 12.8403C13.0837 12.8699 13.1101 12.8963 13.1405 12.9267L13.1389 12.9275ZM10.9741 10.1675C10.8445 10.1971 10.7333 10.2259 10.6205 10.2483C10.4389 10.2843 10.2581 10.3235 10.0749 10.3491C9.90129 10.3731 9.72449 10.3803 9.54929 10.3947C9.53569 10.3955 9.51809 10.3939 9.50929 10.4011C9.41009 10.4859 9.26849 10.3891 9.17249 10.4819C9.11889 10.4083 9.06769 10.4923 9.01249 10.4867C8.94849 10.4803 8.88049 10.5091 8.81569 10.5219C8.79969 10.5083 8.78369 10.4947 8.76609 10.4819C8.76129 10.4787 8.75169 10.4819 8.74449 10.4819C8.64449 10.5555 8.49329 10.5075 8.41009 10.6331C8.36849 10.8307 8.43409 11.0259 8.46129 11.2307C8.55409 11.2027 8.63969 11.2307 8.73569 11.1899C8.85809 11.1371 9.01089 11.1595 9.14769 11.1331C9.21409 11.1203 9.26369 11.1867 9.33409 11.1459C9.39089 11.1131 9.47089 11.1523 9.53169 11.0955C9.55089 11.0771 9.61329 11.0779 9.63569 11.0955C9.73329 11.1731 9.84369 11.1195 9.94609 11.1363C10.1037 11.0387 10.2965 11.1491 10.4541 11.0491C10.6189 11.0803 10.7677 10.9875 10.9165 11.0011C11.0021 10.9123 11.0157 10.8219 11.0237 10.7203C11.0381 10.5403 10.9725 10.3715 10.9741 10.1675ZM9.82449 12.4843C9.61889 12.5051 9.41489 12.5251 9.22849 12.5435C9.09249 12.4379 8.94769 12.4339 8.80449 12.3955C8.75889 12.6779 8.85329 12.9291 8.89569 13.1795H9.00289C9.01409 13.1475 9.02289 13.1227 9.03089 13.1003C9.15489 13.0883 9.22689 13.1707 9.27729 13.2091C9.45809 13.2843 9.60609 13.1403 9.73249 13.2179C9.81969 13.2059 9.88849 13.1819 9.95329 13.1899C10.0917 13.2083 10.2277 13.1731 10.3453 13.1315C10.5357 13.0643 10.7285 13.0355 10.9117 13.0035C10.9477 12.9171 10.9813 12.8371 11.0157 12.7539V12.1459H10.6885C10.6013 12.2235 10.5069 12.2683 10.3997 12.1795C10.2653 12.2907 10.1277 12.3811 9.95249 12.3571C9.90609 12.4035 9.86449 12.4451 9.82529 12.4843H9.82449Z" fill="#242424"/>
</svg>
