<svg width="24" height="24" viewBox="0 0 24 24" fill="none" xmlns="http://www.w3.org/2000/svg">
<path fill-rule="evenodd" clip-rule="evenodd" d="M18.5921 10.7034C18.5552 10.66 18.5187 10.617 18.444 10.6087H18.4456C18.4371 10.5784 18.4288 10.5489 18.4206 10.5195C18.3932 10.4215 18.3662 10.3254 18.3336 10.2103C18.3053 10.1902 18.2757 10.1668 18.2448 10.1423C18.1672 10.0808 18.0807 10.0123 17.9824 9.97114C17.9428 9.95444 17.9281 9.9217 17.9147 9.89197C17.9005 9.86049 17.8879 9.8324 17.8488 9.83034C17.7512 9.82634 17.6824 9.77674 17.6096 9.72074C17.5344 9.66314 17.4728 9.59434 17.4176 9.52234H17.1088C17.0464 9.45514 16.9704 9.43514 16.8816 9.43354C16.8661 9.43327 16.8517 9.42918 16.8372 9.42505C16.8083 9.41682 16.7789 9.40849 16.74 9.43034C16.7168 9.44306 16.6775 9.42711 16.6386 9.41129C16.6212 9.40423 16.6038 9.39719 16.588 9.39274C16.5803 9.39965 16.5729 9.40655 16.5655 9.41337C16.5574 9.42077 16.5495 9.42806 16.5416 9.43514L16.4632 9.35674C16.4332 9.35154 16.4031 9.34501 16.373 9.33848C16.3012 9.3229 16.2292 9.30729 16.1576 9.30954C16.0908 9.31122 16.0245 9.33141 15.9626 9.35021C15.9363 9.35822 15.9108 9.36597 15.8864 9.37194C15.8718 9.36695 15.8589 9.36251 15.847 9.35839C15.8303 9.35262 15.8154 9.34748 15.8 9.34234C15.7704 9.47274 15.6712 9.49834 15.5688 9.52394C15.5183 9.53701 15.4689 9.55411 15.4162 9.57239C15.3946 9.57984 15.3726 9.58749 15.3496 9.59514C15.3496 9.59514 15.3344 9.57994 15.3112 9.55914C15.2544 9.61512 15.1837 9.61246 15.1123 9.60977C15.044 9.6072 14.9752 9.60461 14.9176 9.65354C14.8528 9.63297 14.7895 9.65159 14.7258 9.67034C14.6556 9.69096 14.585 9.71175 14.5112 9.68074C14.5172 9.66164 14.5243 9.64384 14.5311 9.6269C14.5442 9.59418 14.556 9.56466 14.556 9.53514C14.5568 9.30314 14.5912 9.07674 14.644 8.85114C14.6539 8.80946 14.6532 8.76751 14.6525 8.72508C14.6516 8.66406 14.6506 8.60204 14.6808 8.53834C14.7089 8.47957 14.7129 8.40771 14.717 8.3355C14.7189 8.30058 14.7209 8.26558 14.7256 8.23194C14.7521 8.04503 14.7595 7.85564 14.7669 7.66615C14.7699 7.59205 14.7728 7.51793 14.7768 7.44394C14.7776 7.43036 14.7792 7.41598 14.7808 7.4016L14.7808 7.40154C14.8291 7.37987 14.8767 7.35759 14.929 7.3331C14.9366 7.32956 14.9442 7.32598 14.952 7.32234C14.9519 7.31098 14.9517 7.29962 14.9516 7.28826C14.9496 7.14276 14.9475 6.99716 15.0336 6.85914C15.0677 6.80518 15.0748 6.73429 15.0809 6.67309C15.0833 6.64808 15.0857 6.6247 15.0896 6.60474C15.0605 6.55456 15.0247 6.51842 14.9907 6.48424C14.95 6.44323 14.9121 6.40503 14.892 6.34874C14.8672 6.27994 14.816 6.20634 14.7552 6.16874C14.6192 6.08314 14.472 6.01194 14.3248 5.94634C14.3012 5.93594 14.2775 5.92588 14.2539 5.91584C14.1337 5.86486 14.0143 5.81417 13.916 5.71994C13.8841 5.68927 13.8386 5.67224 13.7938 5.6555C13.7802 5.65041 13.7667 5.64535 13.7536 5.63994C13.6608 5.60139 13.5679 5.56394 13.4766 5.5271C13.4333 5.50966 13.3904 5.49236 13.348 5.47514C13.2928 5.47064 13.2378 5.46625 13.1831 5.46189C13.0921 5.45462 13.0021 5.44744 12.9136 5.43994C12.9173 5.45 12.9213 5.46121 12.9254 5.47266C12.932 5.49127 12.9389 5.51049 12.9448 5.52634C12.8528 5.56474 12.772 5.59834 12.716 5.62154C12.6911 5.65348 12.6868 5.68456 12.6827 5.71318C12.6781 5.7462 12.6739 5.77594 12.6392 5.79994C12.5878 5.83588 12.5786 5.90111 12.5696 5.96476C12.567 5.98327 12.5644 6.00165 12.5608 6.01914C12.6026 6.03019 12.5903 6.04877 12.5766 6.06953C12.5635 6.08937 12.5491 6.11119 12.5792 6.13034C12.6224 6.15746 12.6009 6.17903 12.5785 6.20158C12.5618 6.21828 12.5446 6.23552 12.5528 6.25594C12.5592 6.27278 12.569 6.28835 12.5766 6.30052C12.5795 6.30512 12.582 6.30923 12.584 6.31274C12.5776 6.32945 12.5715 6.34489 12.5659 6.35899C12.5597 6.3746 12.5542 6.38855 12.5496 6.40074L12.6392 6.49034V8.23354C12.6392 8.24431 12.6391 8.25513 12.639 8.26598C12.6387 8.29863 12.6384 8.33151 12.6408 8.36394C12.6414 8.37166 12.6499 8.379 12.6583 8.38622C12.6621 8.38947 12.6658 8.39271 12.6688 8.39594C12.6728 8.40074 12.6776 8.40634 12.6824 8.41114C12.6496 8.47834 12.6248 8.54314 12.6416 8.56634C12.6924 8.6346 12.6884 8.70924 12.6844 8.78339C12.6831 8.80744 12.6818 8.83143 12.6824 8.85514C12.6845 8.95404 12.6842 9.05316 12.6839 9.15226C12.6836 9.24236 12.6833 9.33244 12.6848 9.42234C12.6854 9.45397 12.6939 9.48519 12.7014 9.51264C12.7046 9.52408 12.7075 9.53486 12.7096 9.54474C12.6906 9.59352 12.6728 9.64051 12.6549 9.68771C12.6434 9.71792 12.6319 9.74823 12.62 9.77914C12.6016 9.78554 12.576 9.79434 12.552 9.80234C12.552 9.82737 12.5545 9.85304 12.5569 9.87821C12.5622 9.93269 12.5672 9.98484 12.5464 10.0231C12.5143 10.0826 12.5211 10.1301 12.5283 10.1809C12.5308 10.1984 12.5334 10.2163 12.5344 10.2351C12.5376 10.3095 12.5448 10.3655 12.5784 10.4007C12.5753 10.4203 12.5699 10.4406 12.5649 10.4598C12.5546 10.4988 12.5455 10.5332 12.5584 10.5471C12.6 10.5928 12.5972 10.6419 12.5945 10.6903C12.5929 10.7183 12.5914 10.7461 12.5984 10.7727C12.6029 10.7899 12.6078 10.8067 12.6127 10.8235C12.629 10.8789 12.6451 10.9337 12.6432 10.9951C12.6428 11.0093 12.6421 11.0235 12.6414 11.0377C12.6377 11.1124 12.6339 11.1873 12.6776 11.2639C12.6949 11.2947 12.6812 11.3434 12.6665 11.3955C12.6594 11.4205 12.6522 11.4462 12.648 11.4711C12.65 11.4744 12.6534 11.4785 12.6573 11.4833C12.6677 11.4958 12.6816 11.5127 12.6816 11.5295C12.6816 11.594 12.7014 11.649 12.7229 11.7086L12.7232 11.7095C12.7316 11.7328 12.7312 11.7585 12.7309 11.7846C12.7304 11.8283 12.7298 11.8728 12.7704 11.9079C12.7576 12.0359 12.7744 12.1623 12.8168 12.2815C12.8266 12.3088 12.816 12.3264 12.8051 12.3445C12.7946 12.362 12.7837 12.3801 12.7904 12.4079C12.8036 12.4631 12.821 12.5175 12.8384 12.5719C12.882 12.7087 12.9258 12.8458 12.904 12.9951C12.9029 13.0039 12.9146 13.0098 12.9259 13.0155C12.9394 13.0224 12.9524 13.029 12.9424 13.0399L12.8712 13.1111C12.8663 13.1449 12.8615 13.1779 12.8567 13.2107C12.8458 13.2852 12.8351 13.3587 12.824 13.4375C12.8265 13.4395 12.8327 13.4464 12.838 13.4524C12.8412 13.456 12.8441 13.4592 12.8456 13.4607C12.8258 13.495 12.8052 13.5286 12.7848 13.5619C12.7329 13.6469 12.6818 13.7303 12.6456 13.8199C12.6272 13.8663 12.6112 13.9223 12.5992 13.9743C12.5891 14.0179 12.592 14.0644 12.5948 14.1107C12.5956 14.1232 12.5963 14.1356 12.5968 14.1479C12.5974 14.1622 12.5973 14.1769 12.5972 14.1918C12.5969 14.2354 12.5965 14.2797 12.6144 14.3143C12.6308 14.3454 12.6173 14.3698 12.6045 14.3928C12.5923 14.4149 12.5808 14.4357 12.5968 14.4599C12.6218 14.4982 12.6144 14.5276 12.6043 14.5675C12.6034 14.571 12.6025 14.5746 12.6016 14.5783C12.5938 14.6103 12.6076 14.6482 12.6212 14.6857C12.627 14.7016 12.6328 14.7175 12.6368 14.7327L12.5552 14.8719C12.6032 14.9143 12.5952 14.9567 12.58 15.0207C12.5719 15.0557 12.5595 15.0906 12.547 15.1257C12.5093 15.2317 12.4711 15.3393 12.548 15.4559C12.5584 15.4706 12.5468 15.5002 12.5352 15.5301C12.5297 15.5442 12.5241 15.5584 12.5208 15.5711C12.5274 15.5851 12.5358 15.5996 12.5445 15.6147C12.5644 15.649 12.5859 15.6863 12.592 15.7263C12.6083 15.8371 12.6178 15.9491 12.6273 16.0609C12.6309 16.1033 12.6345 16.1457 12.6384 16.1879C12.639 16.197 12.6409 16.2061 12.6429 16.2151C12.6438 16.2197 12.6448 16.2242 12.6456 16.2287L12.7304 16.3135V16.4271C12.7488 16.4424 12.7669 16.4551 12.7835 16.4668C12.8146 16.4887 12.8406 16.5069 12.8536 16.5319C12.9536 16.7239 13.004 16.7855 13.1616 16.8759C13.1712 16.8815 13.1816 16.8855 13.1728 16.8815C13.2032 16.8736 13.229 16.8671 13.2521 16.8613C13.2711 16.8566 13.2883 16.8523 13.3048 16.8479C13.321 16.8634 13.3363 16.8778 13.3505 16.8912C13.3673 16.907 13.3826 16.9214 13.396 16.9343C13.4607 16.9121 13.5246 16.89 13.5881 16.8681C13.6756 16.8379 13.7622 16.808 13.8488 16.7783L13.8944 16.8239C13.9344 16.7735 13.9744 16.7223 14.0048 16.6831C14.0384 16.6796 14.0704 16.678 14.1013 16.6765C14.1747 16.6728 14.2419 16.6695 14.3112 16.6407C14.3485 16.625 14.3906 16.6262 14.4343 16.6275C14.4882 16.6291 14.5446 16.6308 14.5976 16.6007C14.6184 16.6263 14.6408 16.6535 14.6824 16.7031C14.6798 16.5805 14.7522 16.5524 14.8223 16.5251C14.8601 16.5104 14.8972 16.496 14.9216 16.4671C14.9435 16.4648 14.9656 16.4641 14.9875 16.4633C15.0327 16.4618 15.0766 16.4604 15.1144 16.4447C15.3376 16.3511 15.568 16.3279 15.808 16.3255C16.1816 16.3215 16.5528 16.3447 16.924 16.3727C16.9271 16.373 16.9302 16.3732 16.9333 16.3734C16.9512 16.3747 16.9694 16.376 16.9864 16.3807C17.0175 16.3891 17.0486 16.3997 17.0796 16.4102C17.1469 16.4331 17.214 16.4559 17.2808 16.4559C17.4019 16.4555 17.5192 16.4792 17.6362 16.5028C17.752 16.5262 17.8675 16.5495 17.9864 16.5495C18.0011 16.5495 18.0152 16.5577 18.0297 16.566C18.0396 16.5717 18.0496 16.5775 18.06 16.5807C18.1063 16.5951 18.1524 16.6115 18.1984 16.628C18.3065 16.6667 18.4145 16.7053 18.5256 16.7159C18.6457 16.7274 18.7589 16.7606 18.8717 16.7938C18.9484 16.8163 19.0249 16.8388 19.1032 16.8543C19.1219 16.858 19.1405 16.8659 19.159 16.8737C19.1855 16.885 19.2117 16.8962 19.2376 16.8943C19.3177 16.8891 19.3879 16.9141 19.4583 16.9392C19.4843 16.9485 19.5103 16.9578 19.5368 16.9655C19.5624 16.9731 19.5877 16.9837 19.6131 16.9942C19.6791 17.0218 19.7453 17.0494 19.8152 17.0239C19.8378 17.0154 19.8532 17.0298 19.8682 17.0438C19.8881 17.0625 19.9073 17.0804 19.9416 17.0415C19.9648 17.0151 20.0376 17.0223 20.0856 17.0295C20.1694 17.0415 20.2356 17.0052 20.3184 16.9599C20.3242 16.9568 20.3301 16.9536 20.336 16.9503C20.2952 16.9239 20.26 16.9015 20.2448 16.8919C20.264 16.7831 20.3256 16.7399 20.4016 16.6959C20.4592 16.6631 20.5192 16.6199 20.5616 16.5527C20.5901 16.5073 20.6388 16.4746 20.6911 16.4395C20.7152 16.4233 20.74 16.4066 20.764 16.3879C20.7198 16.3786 20.6811 16.3709 20.6462 16.3639C20.6395 16.3626 20.6329 16.3612 20.6264 16.3599C20.6314 16.3371 20.6357 16.3152 20.6399 16.2941C20.6486 16.2503 20.6567 16.2098 20.668 16.1703C20.6707 16.1608 20.6732 16.1502 20.6758 16.1393C20.6857 16.0981 20.6966 16.0526 20.72 16.0431C20.8014 16.0107 20.8234 15.9447 20.8452 15.8791C20.8562 15.8461 20.8671 15.8132 20.8856 15.7847C20.9696 15.6575 20.936 15.5327 20.8832 15.4015C20.8867 15.3974 20.8914 15.3929 20.8963 15.3884C20.9073 15.3781 20.9192 15.367 20.9192 15.3559C20.9211 15.1997 20.921 15.0435 20.9209 14.8968C20.9208 14.861 20.9208 14.8257 20.9208 14.7911C20.9495 14.7513 20.9761 14.7131 21.0017 14.6764C21.0531 14.6025 21.1005 14.5345 21.1528 14.4703C21.3 14.2911 21.3464 14.2215 21.3464 14.1479C21.3296 14.1623 21.3144 14.1759 21.2976 14.1911C21.284 14.1615 21.2704 14.1319 21.2528 14.0951H21.156C21.2056 14.0095 21.2528 13.9287 21.292 13.8623C21.3161 13.8446 21.3373 13.8293 21.3569 13.8152C21.3744 13.8025 21.3906 13.7908 21.4064 13.7791C21.3942 13.7626 21.3854 13.7511 21.3767 13.7395C21.3724 13.7337 21.368 13.7279 21.3632 13.7215C21.3826 13.7101 21.4008 13.6979 21.4183 13.6861C21.4571 13.66 21.4929 13.636 21.532 13.6271C21.5398 13.6255 21.5476 13.6241 21.5552 13.6227C21.6053 13.6137 21.6491 13.6058 21.656 13.5231C21.6161 13.5396 21.5766 13.556 21.5374 13.5722C21.3484 13.6505 21.1662 13.7259 20.984 13.8007C20.9784 13.7895 20.972 13.7775 20.9656 13.7663L21.2704 13.5439C21.2621 13.4896 21.3047 13.4714 21.3506 13.4517C21.4022 13.4297 21.458 13.4058 21.4512 13.3271C21.4311 13.3251 21.4099 13.3227 21.3858 13.3199C21.3726 13.3184 21.3585 13.3168 21.3432 13.3151C21.2696 13.4279 21.148 13.4903 21.0272 13.5319C20.8928 13.5775 20.7616 13.6303 20.6312 13.6831C20.444 13.7591 20.26 13.8415 20.076 13.9239C19.9838 13.9654 19.8827 13.9864 19.7714 14.0095C19.7194 14.0203 19.6653 14.0315 19.6088 14.0455C19.5094 14.1134 19.3684 14.1268 19.226 14.1404C19.2056 14.1423 19.1852 14.1442 19.1648 14.1463C19.1206 14.1509 19.0747 14.148 19.0291 14.1451C18.9635 14.1409 18.8986 14.1367 18.84 14.1551C18.7416 14.1855 18.6472 14.1975 18.5504 14.1895C18.4851 14.1844 18.4245 14.1988 18.364 14.2131C18.3303 14.221 18.2967 14.229 18.2624 14.2335C18.234 14.2374 18.2025 14.2342 18.1717 14.2311C18.1252 14.2264 18.0801 14.2218 18.0488 14.2415C17.9993 14.2733 17.9614 14.2596 17.9242 14.2462C17.9042 14.2391 17.8844 14.2319 17.8632 14.2319C17.8218 14.2322 17.7805 14.2332 17.7391 14.2341C17.5605 14.2381 17.382 14.2421 17.204 14.1959C17.187 14.1916 17.1698 14.188 17.1528 14.1845C17.0886 14.1712 17.0263 14.1584 16.9776 14.1039C16.8834 14.1099 16.7971 14.0821 16.7099 14.0539C16.6802 14.0443 16.6503 14.0347 16.62 14.0263C16.566 14.0112 16.5102 14.0005 16.454 13.9897C16.3828 13.9761 16.311 13.9624 16.2408 13.9391C16.16 13.9122 16.0752 13.8975 15.9859 13.8819C15.948 13.8753 15.9092 13.8686 15.8696 13.8607C15.7936 13.929 15.7225 13.8875 15.65 13.8452C15.6256 13.831 15.601 13.8166 15.576 13.8063C15.5659 13.8142 15.5563 13.8217 15.5472 13.8289C15.5405 13.8341 15.5341 13.8392 15.528 13.8439C15.4608 13.8199 15.3992 13.7975 15.348 13.7783C15.342 13.7625 15.3374 13.7496 15.3335 13.7389C15.3302 13.7296 15.3274 13.7218 15.3248 13.7151C15.3164 13.7197 15.3082 13.7253 15.3002 13.7308C15.2831 13.7424 15.2668 13.7535 15.2504 13.7535C15.1331 13.7551 15.0214 13.7269 14.9057 13.6977C14.8423 13.6817 14.7778 13.6654 14.7104 13.6535C14.6936 13.5999 14.6766 13.5472 14.6567 13.4857C14.6425 13.4417 14.6269 13.3932 14.6088 13.3367C14.6129 13.3396 14.5944 13.3287 14.5714 13.3152C14.5626 13.31 14.5531 13.3045 14.544 13.2991C14.5583 13.2537 14.5556 13.2089 14.553 13.1659C14.5492 13.1029 14.5456 13.0438 14.596 12.9919C14.5852 12.9805 14.5745 12.9686 14.5665 12.9598C14.5644 12.9575 14.5625 12.9554 14.5608 12.9535C14.5651 12.9266 14.5697 12.9005 14.5742 12.8748C14.5833 12.8236 14.592 12.7743 14.5968 12.7247C14.6016 12.6699 14.6 12.6145 14.5984 12.5591C14.5981 12.549 14.5979 12.5388 14.5976 12.5287C14.5952 12.4215 14.6344 12.3295 14.692 12.2407C14.7056 12.2201 14.7116 12.1946 14.7176 12.1692C14.7211 12.1543 14.7246 12.1394 14.7296 12.1255C14.7332 12.1173 14.7415 12.1108 14.7488 12.105C14.7514 12.103 14.7539 12.101 14.756 12.0991C14.792 12.0967 14.8256 12.0943 14.8664 12.0911V11.9671H14.9904C15.0097 11.9474 15.0258 11.9279 15.0404 11.9102C15.0684 11.8763 15.0909 11.8491 15.1192 11.8391C15.1745 11.8195 15.2263 11.7929 15.278 11.7664C15.3401 11.7345 15.402 11.7028 15.4696 11.6831C15.5131 11.6706 15.556 11.6553 15.5989 11.64C15.7177 11.5975 15.8368 11.5549 15.9696 11.5719C15.9849 11.574 16.0016 11.5657 16.0185 11.5573C16.0273 11.5529 16.0361 11.5485 16.0448 11.5455C16.2264 11.4815 16.3456 11.4727 16.5808 11.4839C16.5964 11.4848 16.6125 11.4869 16.6289 11.4891C16.6897 11.4971 16.753 11.5055 16.7984 11.4487C16.8061 11.4527 16.8136 11.4574 16.8211 11.462C16.8378 11.4723 16.8543 11.4825 16.872 11.4847C16.8927 11.4877 16.9146 11.4866 16.9362 11.4854C16.9664 11.4838 16.9963 11.4822 17.0224 11.4919C17.1744 11.5487 17.3296 11.5759 17.4904 11.5735C17.4992 11.5733 17.5085 11.5722 17.5178 11.571C17.54 11.5683 17.5622 11.5656 17.5768 11.5751C17.6704 11.6362 17.771 11.6274 17.8706 11.6188C17.9054 11.6158 17.9402 11.6127 17.9744 11.6127C18.0592 11.6135 18.1472 11.5743 18.1832 11.4815C18.164 11.4527 18.1512 11.4335 18.1296 11.4015H18.348C18.3776 11.3319 18.4056 11.2655 18.432 11.2023C18.4124 11.1776 18.3929 11.1532 18.3703 11.1251C18.3578 11.1095 18.3444 11.0928 18.3296 11.0743C18.3481 11.0638 18.3659 11.0536 18.3832 11.0437C18.4498 11.0056 18.5079 10.9724 18.56 10.9431C18.5816 10.8703 18.6008 10.8047 18.6208 10.7359C18.6108 10.7254 18.6014 10.7144 18.5921 10.7034ZM7.25044 12.7927L7.38564 12.6575L7.38244 12.6551C7.42164 12.6663 7.46644 12.6791 7.52084 12.6943C7.55586 12.6746 7.59271 12.6553 7.63036 12.6355C7.72432 12.5862 7.82329 12.5342 7.91125 12.4679C7.98335 12.414 8.06019 12.3923 8.13836 12.3702C8.15647 12.365 8.17464 12.3599 8.19284 12.3543C8.2209 12.3421 8.24339 12.3178 8.26591 12.2936C8.30952 12.2466 8.35323 12.1996 8.43764 12.2391C8.44435 12.2619 8.44992 12.2819 8.45485 12.2995C8.45581 12.303 8.45674 12.3063 8.45764 12.3095C8.47058 12.2943 8.48242 12.2767 8.49386 12.2598C8.51779 12.2244 8.53992 12.1917 8.56645 12.1879C8.65564 12.175 8.71728 12.1247 8.77917 12.0741C8.80165 12.0557 8.82417 12.0374 8.84804 12.0207C8.85824 12.0137 8.87205 12.0122 8.8851 12.0107C8.8915 12.01 8.89772 12.0092 8.90324 12.0079C8.92042 12.0423 8.9365 12.0728 8.94654 12.0919C8.94866 12.0959 8.95051 12.0994 8.95204 12.1023C8.94809 12.1218 8.94614 12.142 8.94429 12.1611C8.94053 12.1999 8.93722 12.234 8.91844 12.2479C8.87609 12.2798 8.89573 12.3055 8.91253 12.3274C8.92398 12.3424 8.93411 12.3556 8.92244 12.3679C8.90004 12.3918 8.90547 12.4201 8.9098 12.4427C8.91273 12.4581 8.91516 12.4707 8.90804 12.4775C8.85902 12.5245 8.8833 12.5541 8.90732 12.5835C8.91114 12.5882 8.91494 12.5928 8.91844 12.5975C8.91183 12.6074 8.9055 12.6171 8.89937 12.6264C8.89068 12.6396 8.88242 12.6522 8.87444 12.6639C8.88216 12.676 8.88929 12.6867 8.89591 12.6967C8.90644 12.7125 8.91569 12.7265 8.92405 12.7407C8.92565 12.7445 8.92511 12.7496 8.92458 12.7548C8.92431 12.7573 8.92405 12.7599 8.92405 12.7623C8.91666 12.7786 8.90872 12.7947 8.9008 12.8108C8.8521 12.9098 8.80388 13.0079 8.88645 13.1207C8.85045 13.1383 8.82085 13.1527 8.78405 13.1703C8.7946 13.1914 8.80448 13.2114 8.81382 13.2303C8.82217 13.2472 8.83009 13.2632 8.83764 13.2783C8.82878 13.2952 8.82001 13.312 8.81131 13.3285C8.77766 13.3927 8.7451 13.4548 8.71204 13.5183C8.72574 13.5334 8.74112 13.55 8.75718 13.5672C8.76831 13.5792 8.77978 13.5915 8.79124 13.6039L8.71204 13.6831C8.76964 13.7543 8.71684 13.8367 8.68564 13.8727C8.65939 13.9026 8.64239 13.9383 8.62557 13.9737C8.60191 14.0234 8.57861 14.0723 8.53044 14.1031C8.47416 14.1389 8.46034 14.1951 8.44652 14.2512C8.43657 14.2915 8.42663 14.3319 8.40084 14.3647C8.39003 14.3786 8.38054 14.3935 8.3711 14.4083C8.36587 14.4166 8.36066 14.4247 8.35524 14.4327C8.33874 14.457 8.31306 14.4721 8.28738 14.4872C8.2496 14.5095 8.21182 14.5317 8.20324 14.5831C8.13769 14.5729 8.08539 14.6062 8.03763 14.6365C7.99913 14.6609 7.96358 14.6835 7.92645 14.6799C7.88531 14.708 7.84552 14.7349 7.80679 14.7612C7.69638 14.836 7.59453 14.9051 7.49444 14.9767C7.46322 14.999 7.43585 15.0261 7.40306 15.0586C7.38629 15.0752 7.36809 15.0932 7.34724 15.1127C7.32537 15.1433 7.2846 15.15 7.24087 15.1573C7.17585 15.1681 7.10427 15.1799 7.07844 15.2727C6.72084 15.3183 6.42564 15.4959 6.15604 15.7095C6.1456 15.7046 6.13525 15.6996 6.12483 15.6947C6.10493 15.6851 6.08477 15.6755 6.06324 15.6655C6.04965 15.7031 6.04005 15.7287 6.03285 15.7479L6.03284 15.7479C5.96047 15.7637 5.88883 15.7791 5.81891 15.7942C5.74355 15.8104 5.67018 15.8262 5.60004 15.8415C5.52359 15.8192 5.44944 15.7973 5.37685 15.7759C5.31424 15.7574 5.2528 15.7393 5.19204 15.7215C5.17444 15.7359 5.16004 15.7471 5.13924 15.7631C5.10971 15.723 5.08191 15.685 5.05631 15.6501C5.04308 15.632 5.03044 15.6147 5.01844 15.5983C4.95232 15.5872 4.88694 15.5757 4.82412 15.5648C4.77446 15.5561 4.72641 15.5477 4.68084 15.5399C4.63204 15.5807 4.59444 15.6119 4.55764 15.6423C4.53929 15.6272 4.52603 15.6161 4.51345 15.6056C4.50739 15.6005 4.50149 15.5955 4.49524 15.5903C4.46893 15.6197 4.44229 15.6501 4.41854 15.6772C4.40545 15.6922 4.39324 15.7061 4.38244 15.7183C4.36487 15.7183 4.35074 15.7177 4.33882 15.7172C4.31981 15.7164 4.30643 15.7159 4.29365 15.7183C4.23459 15.7291 4.21009 15.7773 4.18552 15.8257C4.15884 15.8782 4.13207 15.9309 4.06084 15.9359C4.03273 15.9961 4.00485 16.0563 3.97893 16.1123C3.95766 16.1582 3.93772 16.2013 3.92004 16.2391C3.92134 16.2972 3.94225 16.3487 3.9618 16.3969C3.99043 16.4674 4.01611 16.5306 3.97284 16.5967C3.98662 16.6595 3.99942 16.7184 4.01174 16.7752C4.02661 16.8437 4.04081 16.9092 4.05524 16.9743L4.07044 16.9671C4.09416 17.0281 4.11788 17.089 4.14155 17.1497C4.19212 17.2795 4.24245 17.4087 4.29204 17.5367C4.27604 17.5527 4.26644 17.5631 4.25684 17.5735C4.34456 17.6425 4.36303 17.741 4.38193 17.8419C4.38889 17.8789 4.3959 17.9164 4.40645 17.9527H4.51284C4.51648 17.9855 4.5192 18.0132 4.5217 18.0386C4.5225 18.0467 4.52327 18.0546 4.52405 18.0623C4.58584 18.0796 4.61564 18.126 4.64524 18.1722C4.66775 18.2072 4.69016 18.2422 4.72645 18.2639C4.75569 18.2816 4.78319 18.3066 4.81027 18.3312C4.85433 18.3712 4.89728 18.4102 4.94484 18.4151C4.99408 18.42 5.02248 18.4523 5.04971 18.4832C5.08043 18.5181 5.10966 18.5513 5.16564 18.5415C5.16995 18.5372 5.17444 18.5323 5.17904 18.5274C5.18384 18.5222 5.18874 18.5168 5.19365 18.5119C5.20965 18.5263 5.22484 18.5399 5.23684 18.5503L5.24044 18.5479C5.26382 18.5321 5.28505 18.5177 5.30484 18.5047C5.32186 18.5164 5.33661 18.526 5.34701 18.5328C5.3552 18.5381 5.36068 18.5417 5.36244 18.5431C5.4226 18.5339 5.47696 18.5253 5.5299 18.5169C5.5692 18.5106 5.60771 18.5045 5.64724 18.4983C5.76574 18.3435 5.94046 18.2628 6.11428 18.1825C6.12822 18.176 6.14215 18.1696 6.15604 18.1631C6.19289 18.146 6.22508 18.1232 6.25755 18.1002C6.29627 18.0727 6.33538 18.045 6.38324 18.0263C6.41503 18.014 6.44692 18.0019 6.47886 17.9897C6.69852 17.9061 6.91988 17.8218 7.11684 17.6863C7.12964 17.6975 7.14565 17.7119 7.17125 17.7359C7.2031 17.7165 7.23578 17.6968 7.26877 17.6769C7.30787 17.6533 7.34739 17.6294 7.38645 17.6055L7.41924 17.6383C7.45044 17.6095 7.48084 17.5807 7.51204 17.5511H7.69365C7.72653 17.5082 7.76111 17.4618 7.79927 17.4107C7.80659 17.4009 7.81405 17.3909 7.82165 17.3807H7.93924C7.99044 17.3327 8.04084 17.2847 8.09204 17.2359C8.10381 17.2435 8.11431 17.2518 8.1238 17.2594C8.14141 17.2734 8.15557 17.2847 8.16804 17.2831C8.26324 17.2695 8.43204 17.1807 8.51284 17.1167C8.57204 17.0695 8.63524 17.0271 8.69844 16.9855C8.78964 16.9255 8.88164 16.8671 8.97524 16.8111C8.99679 16.7983 9.01937 16.7869 9.04195 16.7755C9.11247 16.7399 9.18306 16.7043 9.22244 16.6255C9.22964 16.6095 9.25524 16.5935 9.27284 16.5935C9.39586 16.5884 9.4691 16.5101 9.52638 16.4489C9.54024 16.4341 9.55317 16.4203 9.56564 16.4087C9.59995 16.3929 9.62733 16.3802 9.65069 16.3694C9.6829 16.3545 9.70747 16.3431 9.73204 16.3319C9.75282 16.3227 9.77359 16.3134 9.79455 16.304C9.82283 16.2913 9.85144 16.2784 9.88084 16.2655C9.88259 16.1961 9.93175 16.1646 9.98164 16.1326C10.0232 16.1059 10.0652 16.079 10.0808 16.0295C10.0855 16.0161 10.1024 16.0071 10.1196 15.9978C10.1291 15.9927 10.1387 15.9875 10.1464 15.9815C10.1779 15.9568 10.2099 15.9327 10.2419 15.9085C10.3157 15.8527 10.3896 15.7968 10.4576 15.7343C10.5514 15.6479 10.6409 15.5567 10.7271 15.4687C10.7637 15.4314 10.7997 15.3947 10.8352 15.3591L10.8984 15.0399C10.9346 14.999 10.9732 14.9545 11.016 14.905C11.0234 14.8965 11.0308 14.8879 11.0384 14.8791C10.9944 14.8575 10.9656 14.8431 10.9352 14.8279V14.6959C10.9527 14.6762 10.9709 14.6563 10.9898 14.6354C11.004 14.6199 11.0186 14.6039 11.0336 14.5871C10.9808 14.4775 10.952 14.3783 11.016 14.2663C11.03 14.2423 11.0209 14.2065 11.0115 14.1695C11.0059 14.1473 11.0001 14.1247 10.9992 14.1039C10.9974 14.0598 10.9813 14.0173 10.9653 13.9749C10.9396 13.9068 10.914 13.839 10.948 13.7655C10.9851 13.6859 10.9809 13.605 10.9768 13.5243C10.9745 13.4776 10.9721 13.431 10.9776 13.3847C10.8978 13.3036 10.9286 13.2204 10.9569 13.1441C10.9641 13.1249 10.9711 13.1061 10.976 13.0879C10.9653 13.0707 10.9565 13.0563 10.9499 13.0456C10.9433 13.0347 10.9388 13.0275 10.9368 13.0247C10.9474 12.9966 10.9596 12.9703 10.9713 12.9452C10.9958 12.8924 11.0177 12.8452 11.016 12.7991C11.0138 12.7316 10.9943 12.6649 10.9743 12.5963C10.9651 12.5649 10.9558 12.5331 10.948 12.5007C10.9656 12.4655 10.9896 12.4191 11.0104 12.3791C10.9864 12.3335 10.964 12.2911 10.9336 12.2343C10.9405 12.1893 10.9368 12.1408 10.9331 12.0919C10.9268 12.0096 10.9204 11.9262 10.964 11.8559C10.9602 11.828 10.9575 11.8018 10.9549 11.777C10.9495 11.7251 10.9448 11.6792 10.9312 11.6359C10.9225 11.6078 10.9314 11.583 10.9406 11.5576C10.9523 11.5251 10.9643 11.4917 10.94 11.4495C10.9225 11.4183 10.9361 11.3687 10.9506 11.3161C10.9572 11.2919 10.964 11.2671 10.968 11.2431C10.9448 11.2015 10.9152 11.1487 10.8912 11.1063C10.8966 11.0869 10.9027 11.069 10.9084 11.0519C10.9196 11.0184 10.9297 10.9886 10.9312 10.9583C10.9324 10.937 10.9342 10.9152 10.936 10.8934C10.9426 10.8121 10.9493 10.7289 10.9272 10.6551C10.9112 10.6018 10.9207 10.552 10.9301 10.5029C10.9389 10.4563 10.9477 10.4102 10.9344 10.3623C10.9048 10.2551 10.8752 10.1471 10.888 10.0319C10.8936 9.98265 10.8922 9.93223 10.8909 9.88172C10.8903 9.85924 10.8896 9.83675 10.8896 9.81433V9.20393C10.8896 9.18161 10.8871 9.15756 10.8845 9.13353C10.8788 9.07919 10.873 9.02496 10.8968 8.99113C10.9148 8.96534 10.9124 8.94107 10.9099 8.91675C10.9073 8.89128 10.9048 8.86575 10.9256 8.83833C10.9502 8.80658 10.944 8.75156 10.938 8.69784C10.9354 8.67441 10.9328 8.65122 10.9328 8.63033L10.9872 8.57593C10.9923 8.55152 10.9976 8.53037 11.0023 8.51142C11.0119 8.47323 11.0192 8.444 11.0176 8.41513C11.0154 8.3779 11.0052 8.34068 10.9946 8.30206C10.9902 8.28589 10.9857 8.26948 10.9816 8.25273C10.985 8.24324 10.9897 8.23317 10.9946 8.22267C11.0057 8.1986 11.0179 8.17226 11.0184 8.14553C11.0197 8.09377 11.0194 8.04193 11.0192 7.98994C11.0183 7.80647 11.0174 7.62107 11.0816 7.43033C11.0912 7.42467 11.1028 7.41769 11.1153 7.41016C11.1365 7.39745 11.1602 7.38318 11.1808 7.37113C11.1854 7.35736 11.1888 7.34302 11.1921 7.32902C11.1991 7.2991 11.2058 7.27071 11.2232 7.25273C11.3144 7.15833 11.3416 7.04953 11.32 6.91353C11.3002 6.88641 11.2779 6.85936 11.2551 6.83183C11.2006 6.76596 11.1438 6.69731 11.1144 6.61833C11.0844 6.53615 11.0337 6.52416 10.9791 6.51126C10.9668 6.50834 10.9542 6.50537 10.9416 6.50153C10.9382 6.4913 10.9349 6.48132 10.9322 6.47297C10.9278 6.45976 10.9248 6.45064 10.9248 6.45113C10.8688 6.42712 10.819 6.40608 10.7716 6.38609C10.7338 6.37009 10.6975 6.35477 10.6608 6.33913L10.5848 6.38873C10.5653 6.3793 10.5458 6.3697 10.5261 6.36007C10.3576 6.27739 10.1839 6.19214 9.97684 6.18713C9.95444 6.20393 9.91684 6.23273 9.87924 6.26153L9.82084 6.20873C9.78935 6.2597 9.74133 6.2555 9.69312 6.25129C9.64827 6.24737 9.60325 6.24344 9.57125 6.28393C9.48805 6.25193 9.39604 6.28073 9.33604 6.31193C9.29136 6.33524 9.24649 6.33553 9.20427 6.3358C9.15956 6.33609 9.11783 6.33636 9.08244 6.36393C9.04874 6.40046 9.01503 6.4371 8.9814 6.47366C8.92003 6.54037 8.85891 6.60681 8.79844 6.67193C8.79807 6.67985 8.79769 6.68773 8.79732 6.69555C8.79531 6.73747 8.79339 6.77754 8.79204 6.81193C8.75524 6.81913 8.73524 6.82313 8.70564 6.82953C8.73604 6.99433 8.63924 7.09593 8.53924 7.18473C8.50964 7.37433 8.59924 7.51513 8.69444 7.65193C8.70484 7.6678 8.72573 7.67656 8.74736 7.68563C8.75735 7.68982 8.76749 7.69407 8.77684 7.69913C8.78972 7.66336 8.79876 7.63975 8.80796 7.61571C8.80905 7.61286 8.81014 7.61001 8.81124 7.60713C8.81499 7.61034 8.81892 7.6131 8.82263 7.61572C8.83002 7.62092 8.83658 7.62554 8.83924 7.63193C8.86724 7.70313 8.88804 7.77353 8.88724 7.85353C8.88686 7.88909 8.89655 7.92502 8.90623 7.96087C8.91658 7.99923 8.92691 8.0375 8.92484 8.07513C8.91862 8.19998 8.93485 8.32333 8.95106 8.44655C8.97028 8.59255 8.98947 8.73838 8.97124 8.88633C8.96965 8.90073 8.96804 8.91673 8.97204 8.92953C8.97415 8.93586 8.98044 8.9408 8.99343 8.95101C9.00014 8.95627 9.00862 8.96294 9.01924 8.97193C9.02676 8.95755 9.03428 8.94303 9.04223 8.92768C9.05375 8.90544 9.06618 8.88144 9.08084 8.85353C9.11946 8.94933 9.07505 9.00063 9.03283 9.04941C9.00595 9.08046 8.97996 9.11049 8.97684 9.15033V9.42313C9.10084 9.51353 9.15285 9.58313 9.14165 9.63433C9.12255 9.6541 9.10578 9.67213 9.08787 9.69139C9.08477 9.69473 9.08163 9.6981 9.07844 9.70153C9.06324 9.67113 9.04964 9.64233 9.03364 9.60793L8.96244 9.95513L8.95403 9.9561C8.91617 9.96047 8.88432 9.96414 8.85524 9.96713L8.76804 10.0543H8.58724C8.58385 10.0722 8.58057 10.0891 8.57741 10.1053C8.57238 10.1311 8.56766 10.1554 8.56324 10.1799C8.53833 10.1619 8.5188 10.1475 8.50415 10.1367C8.50186 10.135 8.49969 10.1334 8.49764 10.1319C8.46595 10.1468 8.43563 10.1629 8.40604 10.1787C8.34 10.2139 8.27753 10.2472 8.21125 10.2599C8.11765 10.2783 8.04164 10.3063 7.97044 10.3679C7.93124 10.4023 7.87605 10.4351 7.82645 10.4375C7.76945 10.4405 7.71211 10.4405 7.65475 10.4405C7.51327 10.4405 7.37163 10.4406 7.23444 10.4855C7.20812 10.4943 7.18689 10.4842 7.16546 10.4739C7.14196 10.4627 7.11821 10.4513 7.08724 10.4647C7.05745 10.4772 7.02333 10.4785 6.98887 10.4797C6.96595 10.4805 6.94289 10.4814 6.92084 10.4855C6.90345 10.4889 6.88763 10.4997 6.87339 10.5095C6.86732 10.5137 6.86154 10.5176 6.85604 10.5207L6.85506 10.5202C6.77699 10.4796 6.6989 10.4389 6.61684 10.3959C6.56837 10.4013 6.51791 10.3984 6.46832 10.3955C6.37058 10.3897 6.27624 10.3842 6.20724 10.4431C6.19981 10.4548 6.1934 10.4649 6.18773 10.4738C6.16775 10.5052 6.15695 10.5221 6.14324 10.5439L6.13459 10.5375C6.10508 10.5155 6.0851 10.5007 6.06244 10.4831C6.00303 10.5304 5.94307 10.5776 5.88128 10.6263C5.83741 10.6609 5.79262 10.6962 5.74645 10.7327C5.74245 10.7711 5.73684 10.8247 5.73204 10.8687C5.71739 10.8726 5.70538 10.8757 5.69457 10.8786C5.67883 10.8826 5.66562 10.8861 5.65044 10.8903V11.0847C5.627 11.0997 5.60449 11.1141 5.58263 11.1282C5.55079 11.1486 5.52033 11.1681 5.49044 11.1871C5.4896 11.2273 5.47535 11.2659 5.46125 11.304C5.43521 11.3745 5.40971 11.4436 5.47044 11.5183C5.39748 11.6091 5.43871 11.6801 5.485 11.7598C5.49911 11.7841 5.51369 11.8092 5.52564 11.8359L5.44084 11.8903C5.45554 11.919 5.46884 11.9451 5.48156 11.9701C5.49931 12.0049 5.51594 12.0374 5.53365 12.0719L5.52873 12.0815C5.51312 12.112 5.49881 12.14 5.47924 12.1791C5.47924 12.1887 5.47968 12.1996 5.48015 12.2115C5.48137 12.2423 5.48284 12.2793 5.47764 12.3151C5.4743 12.3366 5.46614 12.3575 5.45804 12.3782C5.44866 12.4021 5.43936 12.4259 5.43764 12.4503C5.43364 12.5055 5.44245 12.5631 5.45364 12.6175C5.46325 12.6639 5.47524 12.7127 5.50084 12.7503C5.51581 12.773 5.5063 12.7908 5.49616 12.8097C5.48408 12.8323 5.47111 12.8566 5.49764 12.8927C5.54306 12.9537 5.56624 13.0311 5.58974 13.1096C5.60019 13.1445 5.61069 13.1796 5.62324 13.2135C5.63706 13.2286 5.65144 13.2444 5.66613 13.2604C5.6974 13.2947 5.73008 13.3304 5.76165 13.3647C5.87925 13.3535 5.95444 13.4255 6.02484 13.4943L6.07364 13.4455C6.08943 13.4504 6.10516 13.4577 6.1211 13.4652C6.17383 13.4899 6.22871 13.5156 6.29444 13.4535C6.3443 13.4063 6.40134 13.3666 6.45839 13.3268C6.50388 13.2951 6.54937 13.2634 6.59125 13.2279C6.6095 13.2131 6.61352 13.1808 6.61693 13.1533C6.61831 13.1422 6.61958 13.132 6.62165 13.1239C6.6751 13.087 6.72774 13.0507 6.78039 13.0144C6.88534 12.9419 6.9903 12.8694 7.10165 12.7927H7.25044Z" fill="#242424"/>
</svg>
