<svg width="24" height="24" viewBox="0 0 24 24" fill="none" xmlns="http://www.w3.org/2000/svg">
<path d="M3.1189 19.5961C3.0749 19.4921 3.04051 19.4121 3.01331 19.3457C3.05971 19.0761 3.1045 18.8193 3.1501 18.5537C3.1701 18.5697 3.1845 18.5809 3.2021 18.5953C3.2629 18.4953 3.32371 18.3937 3.38531 18.2929C3.39891 18.2945 3.4125 18.2969 3.4469 18.3009C3.4285 18.4505 3.4093 18.6009 3.3917 18.7433C3.4469 18.7985 3.4933 18.8449 3.5397 18.8913C3.6053 18.9041 3.6709 18.9169 3.7597 18.9337C3.8301 18.9137 3.9493 18.9121 4.0197 18.8529C4.1077 18.7793 4.2181 18.7617 4.3069 18.6913C4.3909 18.6249 4.4653 18.5617 4.5141 18.4665H4.5973C4.7541 18.2201 4.9589 18.0225 5.1845 17.8393V17.6825C5.2197 17.6537 5.27971 17.6201 5.31571 17.5689C5.34931 17.5209 5.3557 17.4553 5.3765 17.3921C5.4757 17.3761 5.5013 17.2921 5.5037 17.2033C5.5333 17.2017 5.5477 17.2001 5.5621 17.1993C5.5685 17.1873 5.58051 17.1753 5.58051 17.1633C5.58131 17.0737 5.5829 16.9865 5.6797 16.9393C5.6941 16.9321 5.7053 16.9113 5.7117 16.8945C5.7341 16.8385 5.7437 16.7737 5.7773 16.7257C5.8877 16.5681 5.9517 16.3881 6.0117 16.2121C6.0701 16.0401 6.1517 15.8753 6.1917 15.6969C6.1965 15.6769 6.1973 15.6545 6.20771 15.6385C6.3405 15.4377 6.3885 15.2041 6.4693 14.9833C6.4805 14.9513 6.4965 14.9185 6.4965 14.8857C6.4965 14.6961 6.52931 14.5129 6.58291 14.3321C6.59651 14.2857 6.5981 14.2257 6.5813 14.1809C6.5621 14.1297 6.5069 14.0753 6.5549 14.0305C6.6189 13.9705 6.5029 13.9545 6.5397 13.9049C6.5629 13.8737 6.57011 13.8305 6.5877 13.7857C6.5581 13.7529 6.5261 13.7161 6.4941 13.6809C6.4989 13.6489 6.4989 13.6201 6.5077 13.5945C6.51411 13.5761 6.5325 13.5625 6.5549 13.5337C6.5205 13.4969 6.48691 13.4617 6.44771 13.4185C6.46371 13.3857 6.4821 13.3497 6.5093 13.2945C6.4757 13.2753 6.43811 13.2537 6.39331 13.2281C6.45891 13.1617 6.5061 13.1129 6.5717 13.0457C6.5213 13.0249 6.49331 13.0129 6.45091 12.9953C6.46051 12.9673 6.4709 12.9377 6.4845 12.8985C6.4533 12.8441 6.4301 12.7761 6.4797 12.7033C6.5237 12.6393 6.5045 12.5841 6.4589 12.5545C6.4781 12.4689 6.49331 12.4025 6.50851 12.3329C6.47251 12.3201 6.4469 12.3113 6.3861 12.2897C6.4469 12.2737 6.4901 12.2625 6.5141 12.2561C6.4957 12.1257 6.4829 12.0433 6.4749 11.9601C6.4733 11.9401 6.4997 11.9177 6.4973 11.8985C6.4853 11.8097 6.5341 11.7145 6.4597 11.6297C6.4413 11.6089 6.4717 11.5441 6.4821 11.4897C6.4765 11.4801 6.4621 11.4569 6.4413 11.4233C6.4821 11.3945 6.5173 11.3697 6.5501 11.3465C6.46051 11.2393 6.5181 11.1273 6.4917 11.0097C6.5333 10.9681 6.5789 10.9225 6.6365 10.8649C6.6101 10.8473 6.57971 10.8281 6.53811 10.8017C6.55251 10.7713 6.56931 10.7361 6.59091 10.6913C6.57731 10.6737 6.5613 10.6521 6.5389 10.6233C6.5645 10.5433 6.6397 10.4561 6.5461 10.3681C6.5749 10.3393 6.6005 10.3137 6.6317 10.2825C6.6197 10.1921 6.65891 10.0897 6.58051 9.99526C6.59571 9.97526 6.61171 9.95447 6.62771 9.93287C6.6181 9.92327 6.60771 9.91286 6.59811 9.90326C6.61971 9.78726 6.6741 9.68967 6.7797 9.61687C6.7517 9.58167 6.73491 9.56086 6.71331 9.53446C6.75411 9.50806 6.7949 9.48246 6.8469 9.44966C6.8189 9.28086 6.9725 9.22167 7.0765 9.12727C7.1101 9.09607 7.13891 9.06007 7.18771 9.00647C7.23651 8.99367 7.3205 8.98407 7.3917 8.94807C7.4301 8.92807 7.4629 8.91287 7.5069 8.90807C7.5925 8.89927 7.5917 8.89527 7.6541 8.77287C7.6829 8.78567 7.71171 8.79767 7.75091 8.81527C7.80371 8.80486 7.87091 8.77687 7.93571 8.78247C8.01171 8.78807 8.0829 8.76167 8.1317 8.72807C8.2093 8.67527 8.2965 8.67047 8.3525 8.70247C8.4181 8.73927 8.4757 8.72886 8.5365 8.73446C8.7341 8.75286 8.9293 8.80006 9.1293 8.77846C9.2037 8.77046 9.27731 8.75686 9.36291 8.74406C9.36771 8.74886 9.38371 8.76327 9.38851 8.76727C9.43411 8.75527 9.47491 8.73287 9.51091 8.73767C9.71251 8.76407 9.9069 8.70487 10.1037 8.68727C10.2573 8.67367 10.4077 8.61686 10.5597 8.57926C10.5789 8.57446 10.5989 8.56007 10.6173 8.56167C10.7693 8.58007 10.8709 8.49686 10.9629 8.39446C10.9725 8.38406 10.9845 8.37527 10.9741 8.35287C11.0229 8.26487 11.0725 8.17687 11.1221 8.08807C11.0605 8.01447 11.1357 7.94086 11.1277 7.86406C11.1205 7.79126 11.0845 7.70327 11.1765 7.65687C11.1381 7.58167 11.1077 7.52166 11.0781 7.46406C11.0933 7.43926 11.1069 7.41847 11.1333 7.37527C10.9541 7.40407 10.7901 7.34167 10.6317 7.41607C10.5157 7.36567 10.4189 7.42327 10.3181 7.46647C10.2997 7.47447 10.2709 7.47687 10.2549 7.46807C10.0989 7.38247 9.9317 7.44007 9.7701 7.42807C9.7029 7.42327 9.6253 7.40166 9.5701 7.46966C9.34291 7.50406 9.1157 7.53847 8.8573 7.57767C8.8573 7.57767 8.83731 7.60726 8.81571 7.63846C8.66131 7.64086 8.5341 7.69847 8.4037 7.76167C8.2045 7.85847 7.9957 7.93446 7.7925 8.02486C7.7069 8.06326 7.6053 8.06726 7.5101 8.07926C7.4269 8.08966 7.3565 8.09846 7.3165 8.19366C7.3005 8.23206 7.2293 8.24727 7.1669 8.28247C7.1509 8.35687 7.01171 8.41126 7.06851 8.52966C7.00531 8.61846 6.9189 8.66967 6.8749 8.76727C6.8285 8.87047 6.7085 8.89127 6.6093 8.90567C6.5005 8.92167 6.3861 8.92487 6.2837 8.85287C6.2469 8.82647 6.19331 8.82407 6.14531 8.81767C6.00851 8.76967 6.0141 8.56727 5.8341 8.54807C5.8461 8.48967 5.8645 8.43686 5.8661 8.38326C5.8677 8.33366 5.8477 8.28406 5.8437 8.23446C5.8397 8.17686 5.84291 8.11846 5.84291 8.06006C5.84291 8.00167 5.8381 7.94327 5.8445 7.88567C5.8501 7.83207 5.8685 7.78007 5.8837 7.71527C5.8749 7.70407 5.8589 7.68167 5.8445 7.66247C5.9165 7.46487 5.9877 7.26887 6.0613 7.06567C6.0493 7.04887 6.0333 7.02726 6.0101 6.99446C6.0253 6.97046 6.0437 6.94166 6.0669 6.90486C6.0549 6.88566 6.0413 6.86247 6.0213 6.83127C6.0533 6.80807 6.0901 6.78246 6.1437 6.74486C6.1541 6.67606 6.1653 6.58727 6.0973 6.50247C6.2189 6.39447 6.1925 6.23607 6.2301 6.10087C6.29811 5.85527 6.43651 5.66567 6.67091 5.55767C6.76691 5.57127 6.8485 5.58166 6.9301 5.59446C7.0189 5.60806 7.11731 5.60327 7.19331 5.64247C7.31171 5.70327 7.43091 5.68086 7.54851 5.67846C7.66691 5.67606 7.79171 5.71767 7.9053 5.64807C7.97571 5.71847 8.0373 5.63287 8.10531 5.63687C8.1781 5.64087 8.25491 5.62247 8.32291 5.64006C8.63491 5.72166 8.9517 5.66327 9.26531 5.68087C9.32291 5.68407 9.4053 5.70487 9.4341 5.67607C9.4805 5.62967 9.51811 5.68807 9.5477 5.66247C9.5997 5.61767 9.6253 5.68647 9.6725 5.68727C9.9301 5.68967 10.1813 5.60647 10.4405 5.63607C10.4605 5.63847 10.4845 5.60647 10.5045 5.59207C10.6285 5.66327 10.7405 5.63687 10.8677 5.60167C10.9821 5.56967 11.1125 5.59527 11.2317 5.59527C11.2541 5.53447 11.2693 5.47367 11.2989 5.42167C11.3301 5.36647 11.2285 5.34006 11.2821 5.27446C11.3069 5.24326 11.2765 5.17047 11.2781 5.11687C11.2797 5.06807 11.3013 5.01767 11.2949 4.97047C11.2885 4.91847 11.2621 4.86806 11.2405 4.81926C11.2189 4.76966 11.1837 4.72566 11.1685 4.67446C11.1413 4.58166 11.1109 4.48887 11.1205 4.38727C11.1261 4.33447 11.1397 4.27766 11.0909 4.22406C11.0749 4.20646 11.1229 4.14007 11.1205 4.09687C11.1141 3.94167 11.1557 3.82007 11.3701 3.76247C11.4357 3.75847 11.5557 3.75047 11.6557 3.83687C11.6653 3.84487 11.6805 3.84966 11.6933 3.84966C11.7877 3.85046 11.8821 3.85286 11.9765 3.84966C12.0517 3.84726 12.1245 3.90167 12.2037 3.85207C12.2397 3.82967 12.2901 3.81846 12.3325 3.81926C12.3701 3.82006 12.4077 3.84646 12.4781 3.87366C12.6477 4.02566 12.8445 4.20247 13.0325 4.37127C13.0805 4.83447 12.9709 4.93126 12.8141 5.06326C12.7877 5.16886 12.7677 5.25127 12.7405 5.36087C12.7685 5.37687 12.8189 5.40486 12.8693 5.43366C12.8605 5.44406 12.8517 5.45446 12.8421 5.46406C12.9797 5.46406 13.1173 5.46087 13.2549 5.46567C13.3229 5.46807 13.3933 5.44247 13.4589 5.50247C13.4869 5.52807 13.5661 5.52486 13.6053 5.50406C13.7277 5.43846 13.8565 5.46567 13.9821 5.46567C14.2317 5.46567 14.4765 5.38967 14.7277 5.42006C14.8757 5.34246 15.0349 5.38407 15.1893 5.37767C15.2957 5.37367 15.3853 5.32647 15.4813 5.29127C15.6397 5.23287 15.8005 5.18086 15.9637 5.14006C16.1029 5.10486 16.2149 5.00967 16.3573 4.98167C16.4989 4.95367 16.6109 4.85767 16.7381 4.79607C17.0005 4.66807 17.2381 4.49446 17.4941 4.35446C17.6765 4.25446 17.8341 4.12246 18.0077 4.01446C18.1437 3.92886 18.2933 3.86487 18.4469 3.78567C18.4957 3.83127 18.5365 3.86887 18.5773 3.90647C18.6341 3.98087 18.5109 4.05847 18.5813 4.13127C18.5173 4.18727 18.5533 4.29447 18.4645 4.34727C18.4293 4.36807 18.4285 4.44486 18.4085 4.49446C18.3413 4.66326 18.2813 4.83447 18.2021 4.99767C18.1349 5.13607 18.0837 5.28326 18.0317 5.42886C18.0157 5.47366 18.0101 5.52807 18.0189 5.57527C18.0357 5.66647 18.1085 5.75526 18.0165 5.84486C18.0381 5.93926 17.9981 6.02486 17.9717 6.10966C17.9117 6.30166 17.8357 6.48486 17.6725 6.62006C17.6093 6.67207 17.5725 6.75367 17.5157 6.81527C17.3245 7.02087 17.1053 7.18887 16.8349 7.27687C16.7765 7.29607 16.7093 7.28807 16.6469 7.29767C16.5933 7.30567 16.5413 7.32087 16.4565 7.34087C16.4829 7.34087 16.4725 7.34407 16.4685 7.34087C16.4421 7.31607 16.4173 7.28966 16.3869 7.25926C16.2429 7.23766 16.0765 7.29766 15.9629 7.18486C15.8397 7.20406 15.7277 7.22167 15.6029 7.24087C15.5437 7.22007 15.4677 7.19367 15.3909 7.16727C15.3437 7.24807 15.2533 7.11607 15.1989 7.20567C15.1901 7.22087 15.1133 7.19446 15.0525 7.18486C15.0549 7.18246 15.0397 7.19687 15.0237 7.21127C14.8381 7.08487 14.6541 7.29046 14.4549 7.18486C14.4357 7.21606 14.4245 7.24406 14.4045 7.26486C14.3869 7.28326 14.3605 7.29366 14.3021 7.32966C14.3285 7.26326 14.3397 7.23367 14.3581 7.18647C14.3317 7.17767 14.3085 7.17047 14.2813 7.16167C14.2693 7.19527 14.2597 7.22007 14.2541 7.23527C14.1725 7.26727 14.0973 7.29687 14.0109 7.33047C14.0069 7.30247 14.0013 7.26487 13.9925 7.20807C13.8877 7.22967 13.7861 7.20486 13.6685 7.24326C13.5589 7.27846 13.4197 7.27367 13.2909 7.22727C13.1965 7.19367 13.0845 7.18326 12.9837 7.24406C12.9565 7.26006 12.9165 7.25527 12.8741 7.26167V7.36567C12.8493 7.37527 12.8301 7.38167 12.8029 7.39207C12.7869 7.41767 12.7517 7.44966 12.7477 7.48486C12.7157 7.77766 12.5493 8.03367 12.5133 8.34167C12.6693 8.37927 12.8221 8.41606 13.0029 8.45926C13.0741 8.52886 13.1989 8.56566 13.3301 8.59446C13.3533 8.58566 13.3869 8.57286 13.4621 8.54486C13.4189 8.59766 13.4069 8.61207 13.3917 8.63127C13.5125 8.65287 13.6317 8.67606 13.7509 8.69446C13.8677 8.71206 14.0061 8.69127 14.0989 8.74727C14.2189 8.81927 14.3597 8.72086 14.4541 8.81846C14.4885 8.80566 14.5197 8.78566 14.5517 8.78486C14.6005 8.78486 14.6501 8.80406 14.6997 8.80326C14.7621 8.80326 14.8245 8.78726 14.8869 8.78326C14.9445 8.77926 15.0037 8.78727 15.0613 8.78167C15.3629 8.75127 15.6589 8.84566 15.9597 8.82486C16.0925 8.81606 16.2237 8.79126 16.3565 8.78406C16.4869 8.77686 16.6269 8.81126 16.7469 8.77446C16.8613 8.73926 16.9757 8.76806 17.0789 8.73366C17.1909 8.69606 17.2997 8.69527 17.4117 8.69687C17.4501 8.69687 17.4893 8.71767 17.5405 8.73207C17.8301 8.60887 18.0709 8.75527 18.3125 8.93767C18.3317 9.05447 18.4149 9.15446 18.4917 9.23526C18.4773 9.31446 18.4653 9.37366 18.4549 9.43446C18.4429 9.50166 18.4621 9.56646 18.4181 9.63846C18.3757 9.70886 18.4557 9.78966 18.4981 9.86006C18.3941 10.0617 18.5613 10.1993 18.6125 10.3865C18.6117 10.3881 18.5981 10.4081 18.5853 10.4281C18.6237 10.5241 18.6477 10.7017 18.6285 10.8105C18.6205 10.8577 18.6877 10.8945 18.6333 10.9529C18.6077 10.9801 18.6293 11.0505 18.6293 11.1017C18.6293 11.1601 18.6253 11.2185 18.6309 11.2761C18.6333 11.3001 18.6581 11.3225 18.6797 11.3577C18.6101 11.4353 18.6037 11.5249 18.6717 11.6129C18.6573 11.6593 18.6421 11.7041 18.6293 11.7497C18.6141 11.8017 18.5757 11.8873 18.5917 11.8993C18.6621 11.9537 18.5765 11.9817 18.5837 12.0225C18.5925 12.0721 18.5845 12.1241 18.5861 12.1745C18.5877 12.2321 18.5821 12.2913 18.5957 12.3457C18.6069 12.3897 18.6421 12.4281 18.6661 12.4681C18.6029 12.5625 18.6477 12.7025 18.5453 12.7721C18.6165 13.0121 18.5773 13.2641 18.6869 13.4865C18.7125 13.4953 18.7373 13.5041 18.7645 13.5129C18.7461 13.5329 18.7317 13.5481 18.7109 13.5705C18.7277 13.6049 18.7453 13.6401 18.7717 13.6929C18.7341 13.7105 18.6933 13.7289 18.6613 13.7441C18.6933 13.9601 18.7197 14.1433 18.7509 14.3513C18.7365 14.3681 18.7053 14.4049 18.6621 14.4545C18.6893 14.5161 18.7189 14.5833 18.7517 14.6577C18.7461 14.6641 18.7333 14.6793 18.7197 14.6945C18.7333 14.7089 18.7469 14.7249 18.7621 14.7417C18.6581 14.9161 18.7533 15.0537 18.8517 15.1961C18.8437 15.2113 18.8341 15.2297 18.8229 15.2513C18.8333 15.3089 18.8445 15.3721 18.8557 15.4305C18.8221 15.4641 18.7965 15.4897 18.7677 15.5185C18.7797 15.5385 18.7933 15.5593 18.8085 15.5857C18.7933 15.6129 18.7773 15.6425 18.7565 15.6809C18.7701 15.6993 18.7861 15.7217 18.8029 15.7441C18.7909 15.7569 18.7765 15.7729 18.7541 15.7977C18.7701 15.8233 18.7877 15.8521 18.8125 15.8913C18.7981 15.9145 18.7797 15.9425 18.7565 15.9801C18.7717 16.0049 18.7885 16.0337 18.8085 16.0673C18.6997 16.2017 18.8357 16.4081 18.6749 16.5265C18.6669 16.6537 18.7821 16.6761 18.8549 16.7529C18.8397 16.8313 18.8405 16.9281 18.8005 17.0025C18.7517 17.0937 18.7493 17.1681 18.7901 17.2585C18.8085 17.3001 18.8213 17.3777 18.7989 17.3993C18.7157 17.4793 18.7877 17.5401 18.8093 17.6201C18.7869 17.6297 18.7637 17.6385 18.7341 17.6513C18.7517 17.7321 18.7981 17.8201 18.7349 17.9113C18.7173 17.9369 18.7197 17.9785 18.7189 18.0129C18.7093 18.3321 18.6821 18.3961 18.4565 18.6249V18.6881C18.3349 18.7921 18.2253 18.8857 18.1141 18.9801V18.7857C18.0701 18.7993 18.0357 18.8089 18.0021 18.8201C17.9701 18.8305 17.9397 18.8433 17.9045 18.8561C17.8861 18.8377 17.8597 18.8113 17.8221 18.7737C17.8117 18.7985 17.8037 18.8177 17.7877 18.8545C17.7237 18.8785 17.6421 18.9089 17.5621 18.9393C17.5461 18.8617 17.4629 18.8561 17.4053 18.8193C17.3741 18.8345 17.3437 18.8489 17.3133 18.8625C17.3085 18.8649 17.3005 18.8593 17.2789 18.8521C17.2941 18.8313 17.3061 18.8145 17.3197 18.7953L17.2581 18.7337C17.2277 18.7617 17.1973 18.7897 17.1597 18.8249C17.1429 18.7289 17.1421 18.6385 17.0037 18.6369C16.9485 18.6369 16.8949 18.5433 16.8413 18.4929C16.8629 18.4713 16.8733 18.4609 16.8789 18.4553C16.7893 18.3457 16.7005 18.2369 16.6013 18.1153C16.5285 18.1289 16.4501 18.1433 16.3501 18.1625C16.3701 18.1201 16.3821 18.0921 16.3957 18.0657C16.4269 18.0057 16.4613 17.9473 16.4917 17.8873C16.5037 17.8633 16.5053 17.8329 16.5197 17.8121C16.5877 17.7169 16.6797 17.6281 16.5885 17.4977C16.6085 17.4137 16.6189 17.3257 16.6509 17.2473C16.6773 17.1841 16.6757 17.1401 16.6349 17.1057C16.6501 17.0561 16.6645 17.0113 16.6821 16.9537C16.6925 16.9497 16.7181 16.9409 16.7525 16.9289C16.7405 16.9129 16.7301 16.8993 16.7261 16.8929C16.7357 16.7769 16.7445 16.6673 16.7541 16.5585C16.7685 16.3897 16.7893 16.2217 16.7957 16.0529C16.8029 15.8785 16.7941 15.7041 16.7997 15.5297C16.8013 15.4841 16.8349 15.4409 16.8389 15.3945C16.8437 15.3465 16.8485 15.2809 16.8221 15.2513C16.7685 15.1905 16.8789 15.1777 16.8437 15.1233C16.8197 15.0873 16.8221 15.0345 16.8093 14.9745C16.8613 14.7985 16.8589 14.6073 16.8045 14.4089C16.8149 14.3649 16.8549 14.2977 16.8357 14.2617C16.7565 14.1161 16.8141 13.9665 16.8013 13.8201C16.7997 13.8057 16.8277 13.7889 16.8453 13.7697C16.8365 13.7513 16.8229 13.7337 16.8205 13.7153C16.7973 13.5009 16.7661 13.2873 16.7637 13.0713C16.8365 13.0305 16.7429 13.0097 16.7509 12.9721C16.7605 12.9305 16.7549 12.8849 16.7525 12.8417C16.7485 12.7369 16.7557 12.6353 16.7165 12.5297C16.6941 12.4705 16.6485 12.3825 16.7085 12.3065C16.6837 12.1433 16.6589 11.9801 16.6325 11.8065C16.6357 11.8033 16.6501 11.7873 16.6533 11.7841C16.6261 11.7145 16.6109 11.6473 16.5757 11.5913C16.5365 11.5289 16.5965 11.4585 16.5629 11.4153C16.5093 11.3457 16.5509 11.2753 16.5293 11.2001C16.5117 11.1937 16.4869 11.1849 16.4613 11.1769C16.3885 11.1161 16.5269 11.0393 16.4469 10.9793C16.4685 10.8969 16.4213 10.8313 16.3933 10.7617C16.3661 10.6937 16.3309 10.6281 16.3173 10.5529C16.2597 10.4977 16.2029 10.4417 16.1477 10.3881C16.1429 10.3497 16.1389 10.3153 16.1349 10.2769C16.0541 10.2593 15.9741 10.2289 15.8941 10.2273C15.6541 10.2209 15.4141 10.2273 15.1741 10.2233C15.1213 10.2233 15.0677 10.2065 14.9853 10.1921C14.9613 10.2049 14.9069 10.2329 14.8557 10.2593C14.8237 10.2433 14.7877 10.2257 14.7485 10.2057C14.7613 10.1905 14.7733 10.1761 14.7941 10.1513C14.7661 10.1449 14.7437 10.1401 14.7109 10.1321V10.4433C14.6261 10.5729 14.5909 10.6929 14.6013 10.8673C14.5765 10.8937 14.5253 10.9489 14.4589 11.0185C14.5381 11.0497 14.5981 11.0729 14.6573 11.0961C14.7109 11.0257 14.7653 11.0945 14.8173 11.0993C14.8797 11.1057 14.9293 11.0505 15.0029 11.0897C15.0589 11.1201 15.1453 11.0945 15.2181 11.0961C15.3293 11.0977 15.4461 11.0769 15.5373 11.1673C15.7501 11.1729 15.8733 11.3057 15.9757 11.4721C16.0053 11.5201 16.0565 11.5553 16.0989 11.5977C16.0989 11.6113 16.0933 11.6281 16.0997 11.6393C16.1693 11.7625 16.1141 11.8697 16.0653 11.9825C16.0045 12.1241 15.9261 12.2505 15.8173 12.3601C15.7837 12.3937 15.7581 12.4345 15.7133 12.4921C15.5893 12.4921 15.4381 12.4889 15.2869 12.4937C15.1957 12.4961 15.1189 12.4169 15.0237 12.4545C15.0093 12.4601 14.7709 12.4465 14.7573 12.4369C14.6725 12.3737 14.5693 12.4361 14.4877 12.4017C14.3133 12.3289 14.1349 12.3737 13.9589 12.3641C13.9077 12.3617 13.8549 12.3921 13.8021 12.4049C13.7565 12.4153 13.7133 12.3329 13.6605 12.4025C13.6525 12.4129 13.5973 12.3913 13.5653 12.3801C13.4461 12.3401 13.3277 12.2977 13.1757 12.3249C13.1589 12.3673 13.1365 12.4241 13.1125 12.4849C13.1013 12.4873 13.0813 12.4913 13.0525 12.4977V12.6665C13.1213 12.6953 13.1901 12.7489 13.2573 12.7465C13.3269 12.7441 13.3925 12.8233 13.4605 12.7553C13.5237 12.8297 13.6109 12.8025 13.6829 12.7921C13.7557 12.7817 13.8141 12.8337 13.8917 12.8081C13.9477 12.7897 14.0221 12.8249 14.0869 12.8417C14.1189 12.8497 14.1469 12.8713 14.1797 12.8881C14.2325 12.8593 14.2845 12.8313 14.3413 12.7993C14.3461 12.8201 14.3509 12.8401 14.3589 12.8737C14.3765 12.8761 14.4061 12.8897 14.4285 12.8825C14.5453 12.8433 14.6709 12.8497 14.7869 12.8001C14.8749 12.7625 14.9717 12.7385 15.0733 12.7505C15.1029 12.7537 15.1349 12.7281 15.1693 12.7145C15.2357 12.7313 15.3085 12.7489 15.3933 12.7705C15.3949 12.7777 15.3997 12.7969 15.4069 12.8305C15.4533 12.8353 15.5077 12.8417 15.5709 12.8489C15.5557 12.8793 15.5413 12.9057 15.5269 12.9353C15.6053 12.9777 15.6821 13.0153 15.7541 13.0601C15.8285 13.1073 15.9237 13.1033 15.9901 13.1817C16.0445 13.2457 16.1381 13.2753 16.2205 13.3233V13.5001C16.2637 13.5641 16.3405 13.5913 16.3093 13.6953C16.2349 13.7649 16.1421 13.8457 16.0557 13.9329C15.9757 14.0129 15.8533 14.0545 15.8261 14.1809C15.6677 14.2641 15.4997 14.2913 15.3213 14.2833C15.1773 14.2769 15.0261 14.2617 14.8909 14.2985C14.7605 14.3345 14.6357 14.3081 14.5101 14.3249C14.4405 14.2433 14.3477 14.2897 14.2661 14.2841C14.2221 14.2809 14.1765 14.3089 14.1213 14.3257C14.0901 14.2985 14.0541 14.2665 14.0189 14.2361C13.9685 14.2529 13.9229 14.2937 13.8765 14.2377C13.7109 14.2689 13.5557 14.1977 13.3925 14.1913C13.2829 14.1873 13.1789 14.1137 13.0565 14.1665C12.9325 14.1729 12.9077 14.2817 12.8821 14.3801C12.8629 14.4561 12.8421 14.5257 12.7685 14.5721C12.7885 14.6265 12.8045 14.6713 12.8253 14.7297C12.8165 14.7409 12.8005 14.7633 12.7989 14.7657C12.7765 14.9017 12.7501 15.0177 12.7405 15.1353C12.7309 15.2505 12.7421 15.3681 12.7373 15.4841C12.7341 15.5521 12.6861 15.6097 12.6917 15.6849C12.6957 15.7369 12.7629 15.7913 12.6949 15.8449C12.7597 15.9273 12.7517 16.0097 12.6861 16.0825C12.7101 16.1081 12.7245 16.1241 12.7445 16.1449C12.7285 16.1793 12.6957 16.2169 12.6981 16.2521C12.7053 16.3497 12.6685 16.4417 12.6893 16.5449C12.7149 16.6737 12.6893 16.8041 12.6109 16.9241C12.5613 17.0009 12.5453 17.1001 12.5149 17.1889C12.4557 17.2041 12.3829 17.2033 12.3413 17.2393C12.2917 17.2825 12.2437 17.2857 12.1877 17.2953C12.1301 17.3057 12.0765 17.3417 11.9941 17.3785C11.8925 17.3737 11.7613 17.3785 11.6413 17.4489C11.6133 17.4649 11.5565 17.4777 11.5429 17.4633C11.4605 17.3809 11.3629 17.4433 11.2765 17.4185C11.1413 17.5209 11.0093 17.6201 10.8653 17.7297C10.9053 17.4721 10.9437 17.2233 10.9861 16.9537C10.9693 16.9425 10.9333 16.9185 10.9021 16.8969C10.9381 16.8353 10.9645 16.7897 10.9869 16.7497C10.9741 16.7233 10.9501 16.6785 10.9525 16.6769C11.0317 16.6273 10.9213 16.5633 10.9701 16.4985C11.0061 16.4505 10.9877 16.3625 10.9941 16.2921C10.9965 16.2649 10.9997 16.2369 11.0069 16.2105C11.0277 16.1337 11.0253 16.0921 11.0013 16.0401C11.0413 15.9185 11.0773 15.8105 11.1149 15.6969C11.1037 15.6769 11.0877 15.6489 11.0725 15.6233C11.0949 15.5993 11.1093 15.5841 11.1133 15.5793C11.1013 15.5329 11.0701 15.4801 11.0845 15.4577C11.1421 15.3713 11.1213 15.2793 11.1237 15.1897C11.1269 15.0953 11.1261 15.0009 11.1237 14.9065C11.1213 14.8313 11.1629 14.7601 11.1277 14.6793C11.0981 14.6129 11.0957 14.5345 11.0829 14.4697C10.9653 14.4537 10.8629 14.4393 10.7469 14.4233C10.7245 14.4425 10.6877 14.4745 10.6445 14.5113C10.6181 14.4897 10.5973 14.4729 10.5765 14.4553C10.4013 14.5217 10.2253 14.5145 10.0453 14.4713C10.0389 14.4881 10.0293 14.5129 10.0149 14.5513C9.9765 14.5329 9.9421 14.5169 9.9045 14.4985C9.8157 14.5425 9.7253 14.5873 9.6365 14.6313C9.6045 14.6129 9.5757 14.5961 9.5373 14.5729C9.5197 14.6105 9.50691 14.6393 9.4877 14.6801C9.45811 14.6665 9.42931 14.6521 9.38291 14.6305C9.31891 14.6865 9.1957 14.6545 9.1413 14.7633C9.1077 14.7297 9.0813 14.7033 9.0541 14.6761C9.0389 14.6889 9.02451 14.7017 9.00851 14.7153C8.99411 14.7017 8.97891 14.6881 8.9653 14.6753C8.89171 14.6929 8.8189 14.7097 8.7421 14.7281C8.6453 14.6105 8.5549 14.5009 8.4573 14.3825C8.5397 14.2737 8.3429 14.1561 8.4693 14.0257C8.3293 13.8913 8.46371 13.7337 8.44851 13.5801C8.43491 13.4513 8.5013 13.3145 8.5397 13.1521C8.5973 13.1121 8.69731 13.0649 8.76531 12.9889C8.83171 12.9153 8.91331 12.8857 8.99571 12.8553C9.07411 12.8265 9.1573 12.8201 9.2325 12.8769C9.2357 12.8793 9.2621 12.8521 9.2813 12.8353C9.3429 12.8665 9.4021 12.8977 9.4717 12.9329C9.4901 12.9193 9.5117 12.9025 9.54291 12.8785C9.60211 12.9081 9.6685 12.9409 9.7373 12.9745C9.7541 12.9617 9.77011 12.9489 9.78851 12.9353C9.80851 12.9465 9.8301 12.9585 9.8669 12.9793C9.8981 12.9505 9.9333 12.9177 9.9637 12.8889C10.0189 12.9177 10.0725 12.9465 10.1397 12.9817C10.1541 12.9473 10.1669 12.9193 10.1789 12.8905C10.2738 12.9166 10.3648 12.9137 10.4517 12.8817C10.4605 12.9073 10.4685 12.9321 10.4789 12.9617C10.4997 12.9297 10.5205 12.8969 10.5261 12.8889H10.7205C10.8189 12.8305 10.9005 12.7817 10.9861 12.7305C10.9853 12.6961 11.0301 12.6433 10.9485 12.6193C10.9197 12.6105 10.9013 12.5641 10.8741 12.5289C10.8397 12.5465 10.8037 12.5641 10.7557 12.5881C10.7413 12.5553 10.7285 12.5265 10.7125 12.4897C10.6029 12.5161 10.5037 12.5849 10.3837 12.5801C10.2605 12.5753 10.1357 12.5857 10.0133 12.5769C9.89571 12.5681 9.77091 12.6185 9.66051 12.5425C9.64131 12.5561 9.6189 12.5713 9.5973 12.5865C9.5669 12.5657 9.5445 12.5505 9.5197 12.5337C9.3605 12.6161 9.17491 12.6097 9.01091 12.6705C8.85491 12.7289 8.7117 12.8233 8.5717 12.8985C8.5077 12.8225 8.4573 12.7633 8.4061 12.7041C8.3965 12.7137 8.3861 12.7233 8.3765 12.7329C8.3765 12.6897 8.3797 12.6457 8.3765 12.6025C8.3621 12.4241 8.3925 12.2569 8.4837 12.1009C8.4973 12.0785 8.5029 12.0505 8.5077 12.0241C8.5117 12.0033 8.5053 11.9801 8.5093 11.9593C8.5141 11.9329 8.5253 11.9073 8.5301 11.8809C8.53251 11.8665 8.5261 11.8497 8.5269 11.8345C8.5389 11.7065 8.5517 11.5793 8.5645 11.4489C8.5773 11.4569 8.58691 11.4665 8.59811 11.4681C8.65731 11.4785 8.71331 11.3985 8.78051 11.4721C8.82691 11.5225 8.9085 11.4809 8.9773 11.5241C9.0397 11.5633 9.14611 11.5321 9.22851 11.5321C9.25251 11.5081 9.2733 11.4873 9.3021 11.4585C9.2221 11.3289 9.2205 11.1657 9.1261 11.0337C9.0317 10.9009 8.9437 10.7609 8.9389 10.5865C8.9141 10.5769 8.88931 10.5673 8.86291 10.5569C8.87571 10.5353 8.8885 10.5137 8.9165 10.4649C8.8709 10.4417 8.8189 10.4153 8.7725 10.3913C8.7101 10.4721 8.6221 10.5849 8.5349 10.6969C8.5133 10.6825 8.4917 10.6689 8.4469 10.6393C8.4245 10.6929 8.40131 10.7481 8.37811 10.8033C8.36771 10.7905 8.3565 10.7777 8.3461 10.7657C8.3253 10.9113 8.30451 11.0561 8.28051 11.2289C8.26771 11.2385 8.2333 11.2633 8.1901 11.2945C8.2317 11.3089 8.2565 11.3185 8.2821 11.3273C8.2701 11.4513 8.2661 11.5761 8.2437 11.6977C8.2333 11.7545 8.30771 11.7937 8.25331 11.8633C8.22531 11.8985 8.22451 11.9881 8.28851 12.0361C8.19251 12.0745 8.2901 12.1377 8.2701 12.1889C8.25091 12.2385 8.2501 12.2945 8.2421 12.3441C8.2821 12.3585 8.3077 12.3673 8.3365 12.3777C8.2525 12.4249 8.2005 12.4865 8.2037 12.5961C8.2277 12.6233 8.2581 12.6569 8.2965 12.6993C8.2437 12.7073 8.20371 12.7129 8.15571 12.7201C8.29411 12.8161 8.30691 12.8649 8.25091 13.0401C8.26131 13.0505 8.27171 13.0609 8.28531 13.0745C8.2589 13.1249 8.2317 13.1761 8.2045 13.2273C8.2309 13.3249 8.29811 13.4105 8.29091 13.5177C8.18371 13.5913 8.32371 13.7393 8.19091 13.7921C8.23651 13.8529 8.2693 13.8961 8.3141 13.9553C8.2501 13.9689 8.2053 13.9785 8.1613 13.9873V14.0457C8.1837 14.0529 8.20851 14.0617 8.24051 14.0721V14.3249C8.22131 14.3393 8.1869 14.3649 8.1461 14.3953C8.1685 14.4329 8.1861 14.4609 8.2037 14.4897C8.1773 14.5593 8.1517 14.6281 8.1261 14.6961C8.1365 14.7225 8.1509 14.7529 8.1597 14.7849C8.1781 14.8521 8.1181 14.9121 8.1541 14.9913C8.1837 15.0577 8.1613 15.1489 8.1597 15.2289C8.1589 15.3009 8.17011 15.3769 8.14851 15.4425C8.12771 15.5065 8.1709 15.5697 8.1213 15.6361C8.0853 15.6841 8.1461 15.7785 8.0725 15.8321C8.0557 16.0001 8.0389 16.1689 8.0213 16.3449C7.9685 16.4585 7.88451 16.5753 7.86051 16.7033C7.82371 16.9017 7.71411 17.0657 7.65091 17.2513C7.59491 17.4161 7.5101 17.5705 7.4589 17.7393C7.4101 17.9001 7.3445 18.0553 7.2861 18.2129C7.2741 18.2441 7.27091 18.2825 7.25091 18.3065C7.07811 18.5121 6.89571 18.7105 6.73091 18.9217C6.67091 18.9985 6.60051 19.0577 6.5277 19.1145C6.45651 19.1697 6.40211 19.2425 6.32051 19.2873C6.27811 19.3105 6.24291 19.3345 6.19091 19.3465C6.07171 19.3745 5.9925 19.4825 5.8717 19.5233C5.8125 19.5433 5.7701 19.6113 5.6893 19.6137C5.6645 19.6137 5.64131 19.6737 5.59811 19.7313C5.59491 19.7313 5.56131 19.7345 5.51091 19.7401C5.49331 19.7633 5.4669 19.7977 5.4413 19.8321C5.4213 19.8137 5.41091 19.8033 5.39331 19.7865C5.31971 19.8385 5.2437 19.8921 5.1549 19.9545C5.0101 19.9433 4.8477 19.9497 4.7093 20.0441C4.6229 20.1033 4.5293 20.1361 4.4325 20.1737C4.4173 20.1601 4.4013 20.1465 4.3845 20.1313C4.3701 20.1441 4.3549 20.1585 4.3389 20.1729C4.2669 20.1729 4.1733 20.1449 4.1269 20.1793C4.0549 20.2329 4.01011 20.1745 3.96291 20.1673C3.75731 20.1353 3.5709 20.0529 3.4165 19.9057C3.3613 19.8529 3.2885 19.8185 3.2373 19.7641C3.1853 19.7097 3.14931 19.6401 3.12291 19.6001L3.1189 19.5961ZM12.9989 9.99846C12.7789 10.0217 12.5765 9.98086 12.3693 10.0393C12.2029 10.0857 12.0213 10.0361 11.8429 10.0833C11.6325 10.1393 11.4125 10.1609 11.2005 10.2185C11.0581 10.2569 10.9117 10.2769 10.7613 10.2665C10.7013 10.2625 10.6301 10.2369 10.5813 10.3041C10.5405 10.2417 10.5037 10.3137 10.4669 10.3065C10.4213 10.2977 10.3773 10.2769 10.3317 10.2657C10.3221 10.2633 10.3085 10.2769 10.2861 10.2889C10.3429 10.4137 10.4501 10.4873 10.5621 10.5585C10.5445 10.5921 10.5309 10.6185 10.5117 10.6569C10.5525 10.6569 10.5805 10.6553 10.6085 10.6569C10.6349 10.6585 10.6613 10.6633 10.6869 10.6665C10.6717 10.8473 10.8525 10.9273 10.8693 11.0849C10.9917 11.0825 10.9789 11.2177 11.0533 11.2641C11.1429 11.2033 11.2317 11.2057 11.3181 11.2617C11.3589 11.2377 11.4285 11.1849 11.4365 11.1937C11.4941 11.2521 11.5301 11.1641 11.5757 11.1809C11.6069 11.1921 11.6373 11.2217 11.6669 11.2201C11.7197 11.2177 11.7717 11.1985 11.8365 11.1833C11.8485 11.1913 11.8685 11.2105 11.8925 11.2225C11.9205 11.2369 11.9509 11.2465 11.9813 11.2585C12.0501 11.1982 12.1197 11.1862 12.1901 11.2225C12.2533 11.1913 12.4557 11.1593 12.5485 11.2161C12.5581 11.1729 12.5677 11.1289 12.5773 11.0865L12.6293 11.1385C12.6509 11.1105 12.6757 11.0849 12.6917 11.0545C12.7069 11.0265 12.7029 10.9849 12.7229 10.9625C12.8157 10.8569 12.8485 10.7993 12.8685 10.6953C12.8749 10.6625 12.8813 10.6201 12.9037 10.6025C12.9589 10.5593 12.9525 10.5049 12.9565 10.4481C12.9597 10.4041 12.9997 10.3401 12.9837 10.3217C12.9269 10.2585 13.0293 10.2313 13.0029 10.1737C12.9837 10.1313 12.9989 10.0737 12.9989 9.99846Z" fill="#242424"/>
</svg>
