<svg width="24" height="24" viewBox="0 0 24 24" fill="none" xmlns="http://www.w3.org/2000/svg">
<path d="M8.79443 6.87621C8.81043 6.82981 8.81843 6.80501 8.83603 6.75461C8.84803 6.81941 8.85523 6.85941 8.86483 6.90981C9.02003 6.92741 9.09283 6.76982 9.23363 6.72822C9.24083 6.77382 9.24723 6.81301 9.25443 6.85941H9.34003C9.31923 6.83381 9.30643 6.81941 9.29203 6.80181C9.30963 6.78261 9.32883 6.76261 9.34803 6.74261C9.37043 6.75541 9.39203 6.76901 9.41523 6.77941C9.48003 6.80901 9.53363 6.73941 9.60403 6.76181C9.66963 6.78261 9.74403 6.77861 9.81523 6.77781C9.83843 6.77781 9.86163 6.75141 9.89523 6.73141C9.97363 6.76821 10.0584 6.80822 10.1432 6.84822C10.232 6.87942 10.3336 6.84101 10.4248 6.90741C10.4408 6.91941 10.4872 6.88982 10.5192 6.88102C10.6008 6.85942 10.6824 6.84261 10.7584 6.90901C10.768 6.88261 10.7768 6.85701 10.7864 6.83221C10.9088 6.88981 11.0328 6.88181 11.156 6.83461C11.1616 6.85461 11.1664 6.87381 11.1712 6.89381C11.1832 6.89941 11.196 6.91061 11.208 6.90981C11.3264 6.90021 11.4496 6.93941 11.5624 6.86901C11.5792 6.85861 11.6184 6.87141 11.6408 6.88501C11.7216 6.93461 11.808 6.90981 11.8904 6.90421C11.9568 6.89941 12.1096 6.89301 12.1912 6.90901C12.212 6.91301 12.2392 6.91861 12.2552 6.90901C12.3744 6.83701 12.5056 6.87862 12.6304 6.86582C12.6704 6.86182 12.7088 6.83781 12.748 6.83621C12.816 6.83301 12.8896 6.82661 12.952 6.84741C13.0032 6.86501 13.0368 6.86581 13.088 6.84741C13.2152 6.80261 13.3576 6.81061 13.4792 6.73781C13.4968 6.72741 13.5328 6.74342 13.5592 6.75062C13.5848 6.75782 13.6088 6.77621 13.6344 6.77781C13.8536 6.79381 14.076 6.79061 14.292 6.82741C14.5472 6.87141 14.8112 6.87781 15.0568 6.97941C15.1448 7.01621 15.2464 7.02581 15.3376 7.03381C15.568 7.05301 15.7744 7.13701 15.9856 7.21221C16.0048 7.21941 16.028 7.21541 16.0696 7.21781C16.0952 7.19381 16.1304 7.16101 16.164 7.12981H16.2912C16.3232 7.17781 16.3528 7.22182 16.38 7.26342C16.5056 7.23702 16.6184 7.21302 16.7456 7.18582C16.7552 7.19782 16.7776 7.22501 16.7984 7.24981C16.8952 7.19541 16.9928 7.22342 17.0872 7.21542C17.1664 7.20822 17.2448 7.19621 17.324 7.18981C17.4232 7.18181 17.5224 7.17541 17.6224 7.17221C17.7168 7.16901 17.8264 7.20181 17.9024 7.16421C18.0032 7.11381 18.0976 7.13781 18.1936 7.12981C18.2872 7.12181 18.3824 7.12822 18.492 7.12822C18.4776 7.09222 18.4656 7.06181 18.444 7.00901C18.5064 7.00421 18.5584 6.99941 18.6176 6.99461C18.624 7.02101 18.628 7.04101 18.6336 7.06421C18.6656 7.08101 18.7016 7.09941 18.7208 7.10901C18.7904 7.09701 18.8496 7.08661 18.9272 7.07381C18.944 7.04901 18.9704 7.00982 19.0032 6.96102C19.0008 6.96102 19.0136 6.95461 19.0272 6.95381C19.1 6.95301 19.1736 6.96021 19.2448 6.95221C19.384 6.93621 19.5224 6.97621 19.6656 6.91621C19.792 6.86341 19.9496 6.95462 20.084 6.87302C20.1928 6.95862 20.2704 6.87462 20.3656 6.82102C20.5264 6.94422 20.6488 6.80341 20.7992 6.74261C20.812 6.76181 20.8304 6.79141 20.836 6.80021C21.056 6.87221 21.2336 6.76021 21.4552 6.72021C21.4072 6.77301 21.3936 6.78821 21.372 6.81141C21.4192 6.81941 21.4592 6.82582 21.5192 6.83542C21.228 6.99462 20.9744 7.17862 20.7352 7.39302C20.7864 7.37702 20.8376 7.36181 20.928 7.33381C20.772 7.59781 20.556 7.76102 20.4192 7.98102C20.4376 7.99942 20.448 8.00981 20.4632 8.02501C20.3792 8.08661 20.3328 8.19302 20.2344 8.22342C20.1656 8.32422 20.1 8.42021 20.0232 8.53381V8.59941C19.9592 8.62341 19.896 8.64662 19.8176 8.67542C19.8072 8.69301 19.7952 8.74261 19.7648 8.76021C19.572 8.87301 19.376 8.97861 19.1808 9.08661C19.02 9.05301 18.928 9.21622 18.7808 9.23062C18.7488 9.23382 18.7232 9.30181 18.6848 9.35141C18.5264 9.39301 18.348 9.43701 18.172 9.48661C18.1272 9.49941 18.0872 9.52821 18.0152 9.56501C17.8464 9.59781 17.6432 9.63701 17.396 9.68421C17.3696 9.71381 17.3112 9.77701 17.2448 9.84981C17.2072 9.82021 17.176 9.79621 17.1504 9.77621C17.168 9.74181 17.1824 9.71221 17.196 9.68501C17.092 9.61221 17.0152 9.71221 16.9352 9.70421C16.8744 9.67221 16.8216 9.64341 16.7672 9.61621C16.7128 9.58981 16.6568 9.56581 16.5984 9.53861C16.5328 9.59381 16.476 9.51141 16.4096 9.51221C16.3608 9.39061 16.2232 9.48102 16.1552 9.40582C16.0896 9.44422 16.0344 9.39222 15.976 9.38102C15.9184 9.36982 15.8672 9.32422 15.8088 9.31301C15.7456 9.30102 15.6776 9.31541 15.6128 9.30901C15.5312 9.30021 15.4504 9.27622 15.3688 9.26822C15.2896 9.26102 15.2088 9.26661 15.1144 9.26661C15.068 9.19941 14.9928 9.18581 14.904 9.17141C14.8312 9.15941 14.7528 9.11621 14.676 9.09461C14.6008 9.07381 14.5272 9.00341 14.4328 9.07381C14.4488 9.10821 14.4664 9.14421 14.4904 9.19542C14.4384 9.23221 14.3848 9.27061 14.3208 9.31621C14.2064 9.71301 14.0888 10.1186 13.9664 10.5434C14.0376 10.5106 14.096 10.4826 14.1784 10.445C14.2856 10.4314 14.4056 10.4514 14.4976 10.5762C14.5896 10.565 14.6872 10.6074 14.7784 10.5354C14.8008 10.5178 14.8496 10.529 14.8856 10.533C15.0784 10.5554 15.2624 10.505 15.4368 10.4394C15.548 10.3978 15.664 10.3898 15.7752 10.365C15.9016 10.3378 16.0288 10.3114 16.156 10.2826C16.2728 10.2562 16.4 10.2746 16.5224 10.269C16.7128 10.2602 16.8992 10.2906 17.0736 10.3602C17.2168 10.417 17.3768 10.4378 17.4968 10.5522C17.5488 10.6018 17.6224 10.6498 17.6904 10.6562C17.764 10.6634 17.804 10.6994 17.8552 10.7378C17.9256 10.7914 18.0056 10.8306 18.0784 10.881C18.1472 10.9282 18.2216 10.973 18.2752 11.0346C18.332 11.101 18.4056 11.1514 18.468 11.2066C18.5344 11.265 18.6032 11.3258 18.6816 11.389C18.6688 11.4682 18.656 11.5498 18.64 11.6506C18.6416 11.6522 18.6568 11.6754 18.672 11.6978C18.6576 11.7426 18.6328 11.7866 18.6304 11.8322C18.612 12.1154 18.5288 12.3802 18.4112 12.6362C18.3856 12.6914 18.3712 12.7514 18.3392 12.8482C18.34 12.8482 18.3064 12.8738 18.2728 12.9002C18.2952 12.9242 18.3096 12.9402 18.3336 12.9666C18.2208 13.089 18.2088 13.2434 18.1848 13.4034C18.1544 13.6082 18.0728 13.8058 18.0112 14.0058C17.9776 14.1154 17.9328 14.2218 17.9056 14.3322C17.8616 14.5106 17.756 14.6618 17.7088 14.8402C17.636 15.113 17.5416 15.381 17.4488 15.6482C17.4184 15.7362 17.3464 15.8122 17.3248 15.901C17.3024 15.9898 17.3472 16.1018 17.3112 16.1794C17.2664 16.2754 17.2672 16.349 17.3096 16.4522C17.2688 16.4778 17.2152 16.5114 17.1872 16.529C17.1992 16.7266 17.04 16.8858 16.8144 17.0338C16.64 17.0146 16.4528 17.0714 16.2688 16.9914C16.108 17.0514 15.9504 17.125 15.76 17.0386C15.6568 16.9922 15.5256 17.013 15.4104 16.9874C15.2304 16.9474 15.0472 16.9242 14.8688 16.873C14.7624 16.8426 14.648 16.8298 14.5432 16.8242C14.3872 16.8154 14.2344 16.7866 14.0832 16.7626C13.9576 16.7434 13.8256 16.7554 13.7096 16.7194C13.5888 16.6826 13.4656 16.713 13.3568 16.6762C13.2512 16.641 13.1408 16.6682 13.048 16.6322C12.9488 16.5938 12.8504 16.6186 12.7592 16.5922C12.5024 16.5178 12.2272 16.5354 11.9776 16.4266C11.9408 16.4106 11.892 16.421 11.8488 16.421C11.6888 16.421 11.5288 16.4186 11.3688 16.4218C11.308 16.4234 11.2392 16.3954 11.1872 16.461C11.176 16.4754 11.1296 16.4706 11.1032 16.4626C10.8 16.3738 10.4896 16.4394 10.1832 16.421C10.0744 16.4146 9.95363 16.4498 9.85923 16.4122C9.74483 16.3674 9.63603 16.385 9.52483 16.3786C9.49523 16.377 9.46323 16.4034 9.46323 16.4034C9.33203 16.393 9.22723 16.3898 9.12483 16.3754C9.02883 16.3618 8.92243 16.4202 8.83603 16.337C8.73843 16.4258 8.64803 16.301 8.54483 16.3282C8.44963 16.353 8.34243 16.3282 8.24083 16.3354C8.13763 16.3426 8.03443 16.3634 7.90483 16.3818C7.89123 16.4066 7.86723 16.453 7.84323 16.4986C7.83443 16.4906 7.82483 16.4818 7.81603 16.4738C7.76803 16.6794 7.72083 16.885 7.66883 17.1082C7.51843 17.2306 7.35283 17.3458 7.12723 17.3386C6.92403 17.3322 6.72083 17.337 6.52243 17.3314C6.41443 17.317 6.40163 17.2082 6.33523 17.1522C6.26803 17.0962 6.25683 17.0138 6.23043 16.9338C6.17843 16.7754 6.07043 16.6354 6.04403 16.4666C6.02483 16.3426 5.94323 16.2466 5.91443 16.1266C5.90243 16.0778 5.87523 16.0114 5.78163 16.0066C5.82483 15.9914 5.85043 15.9826 5.87763 15.973C5.87363 15.9626 5.87043 15.9442 5.86643 15.9442C5.78643 15.9402 5.71043 15.9338 5.71203 15.8202C5.76963 15.8346 5.81843 15.8474 5.86003 15.8586C5.87523 15.8434 5.88563 15.8378 5.88483 15.833C5.87043 15.7122 5.96963 15.6002 5.92563 15.4818C5.85603 15.2938 5.83363 15.097 5.79523 14.9026C5.75923 14.7242 5.68963 14.553 5.65043 14.3746C5.61443 14.2082 5.56883 14.0434 5.53923 13.8762C5.49843 13.6474 5.44083 13.4226 5.38883 13.1962C5.38323 13.1698 5.36643 13.1458 5.36403 13.1194C5.35203 12.9538 5.32403 12.7914 5.27843 12.6314C5.26083 12.5706 5.28083 12.501 5.27363 12.4362C5.26723 12.3834 5.23283 12.3314 5.23443 12.2794C5.23843 12.1826 5.19603 12.1082 5.14723 12.033C5.15763 12.0226 5.16803 12.0122 5.18403 11.9962C5.15363 11.8634 5.14643 11.7138 5.08403 11.5922C5.01123 11.4498 5.13763 11.2874 4.98083 11.161C5.05203 11.1474 5.09203 11.1402 5.14003 11.1314C5.14243 11.0986 5.14483 11.0642 5.14803 11.0194C5.39763 11.005 5.52163 10.757 5.75603 10.6906V10.5474C5.86243 10.5218 5.96163 10.4986 6.07443 10.4722C6.05363 10.4338 6.03763 10.4042 6.02323 10.3786C6.07123 10.3458 6.12243 10.3114 6.18323 10.2706C6.26563 10.2506 6.36723 10.2994 6.46323 10.241C6.54723 10.1898 6.66243 10.269 6.74563 10.1842C6.75603 10.173 6.78803 10.1826 6.80963 10.1826C7.28403 10.1762 7.75603 10.1114 8.23123 10.1386C8.25923 10.1402 8.28723 10.1386 8.30803 10.1386C8.33123 10.1154 8.34643 10.1002 8.37363 10.073C8.37363 10.0282 8.37043 9.97142 8.37363 9.91542C8.38723 9.70341 8.38723 9.48821 8.42243 9.28021C8.44483 9.14901 8.48963 9.03221 8.42803 8.89621C8.40963 8.85541 8.47203 8.77782 8.49683 8.72102C8.47923 8.68662 8.46083 8.65061 8.45203 8.63381C8.38563 8.64421 8.32563 8.65301 8.25683 8.66421C8.23923 8.68181 8.21363 8.70742 8.18803 8.73302C8.17523 8.73622 8.16163 8.74101 8.14883 8.74261C8.09363 8.74981 8.03843 8.76181 7.98323 8.76181C7.93443 8.76181 7.88563 8.74582 7.83603 8.74342C7.67683 8.73622 7.64963 8.75061 7.48963 8.90741C7.43523 8.89381 7.38723 8.83942 7.32403 8.89542C7.28963 8.92582 7.24323 8.94421 7.19843 8.95941C7.05363 9.01061 7.05283 9.00981 6.90563 8.96261C6.89683 8.98741 6.88723 9.01302 6.87683 9.04342C6.85523 9.02982 6.83443 9.01701 6.81363 9.00421C6.65843 9.05221 6.51443 9.13621 6.34403 9.13621C6.18243 9.13621 6.02723 9.21381 5.88403 9.17861C5.79283 9.22581 5.72003 9.26261 5.64323 9.30261C5.63443 9.29461 5.61923 9.28181 5.59923 9.26421C5.47923 9.31461 5.35763 9.37381 5.23123 9.41781C5.03763 9.48421 4.95763 9.64501 4.86243 9.82181C4.68243 9.93701 4.59923 10.1682 4.42163 10.3074C4.34643 10.3666 4.27123 10.2394 4.19203 10.317C4.13923 10.2898 4.08563 10.2618 4.01843 10.2274H3.87443C3.69603 10.1098 3.52883 9.99541 3.47683 9.75141C3.44563 9.72661 3.39523 9.68582 3.34163 9.64342C3.42403 9.48662 3.23683 9.34261 3.34883 9.19381C3.32803 9.17301 3.30803 9.15301 3.28003 9.12501C3.28963 9.10181 3.30643 9.07622 3.31123 9.04822C3.31683 9.01302 3.31283 8.97541 3.31283 8.93381C3.33683 8.92581 3.36163 8.91701 3.39923 8.90421C3.38723 8.88821 3.37763 8.87462 3.36803 8.86102C3.49283 8.69222 3.49443 8.68262 3.44403 8.48102C3.44403 8.47382 3.44083 8.46341 3.44403 8.45941C3.48403 8.41781 3.52563 8.37702 3.57443 8.32822C3.57443 8.27862 3.56883 8.22021 3.57603 8.16421C3.58163 8.11861 3.60323 8.07461 3.61843 8.02741C3.60483 8.01221 3.59123 7.99621 3.57683 7.98021C3.60296 7.93541 3.6019 7.88955 3.57363 7.84261C3.64883 7.71061 3.60563 7.56501 3.61843 7.43621C3.66643 7.32901 3.70963 7.23061 3.75683 7.12421C3.78003 7.14261 3.79443 7.15382 3.81523 7.17062C3.83923 7.11862 3.86403 7.06661 3.89043 7.01141C4.06963 6.94021 4.26403 6.90661 4.47843 6.88021C4.47523 6.87781 4.49123 6.89061 4.51603 6.91141C4.53843 6.87941 4.56323 6.84581 4.59043 6.80661C4.63203 6.82981 4.66083 6.84661 4.68883 6.86181C4.70323 6.84901 4.71923 6.83541 4.74083 6.81621C4.79923 6.84661 4.85923 6.87782 4.93043 6.91542C4.94643 6.90262 4.97043 6.86821 4.98803 6.87141C5.1603 6.90128 5.3227 6.90022 5.47523 6.86822C5.51683 6.85942 5.56723 6.85541 5.60323 6.87221C5.77603 6.95141 5.95523 6.89622 6.13043 6.90342C6.14563 6.90342 6.16163 6.87781 6.18003 6.86261C6.30563 6.94021 6.44323 6.92502 6.57043 6.89302C6.61683 6.88182 6.66403 6.86821 6.71123 6.86741C6.87843 6.86501 7.04723 6.85381 7.21283 6.86981C7.39363 6.88661 7.56243 6.81781 7.74003 6.82261C7.77123 6.76341 7.80483 6.82021 7.83443 6.81781C7.93123 6.81061 8.03363 6.86022 8.12723 6.78822C8.15043 6.77062 8.20323 6.76662 8.23043 6.78102C8.34483 6.84102 8.46643 6.81221 8.58403 6.82421C8.65123 6.83061 8.71683 6.85541 8.79363 6.87381L8.79443 6.87621ZM13.472 14.3194V14.5546C13.4464 14.5714 13.4176 14.5906 13.392 14.6074C13.4464 14.713 13.4952 14.8074 13.532 14.8802C13.7008 14.9034 13.8456 14.9234 13.988 14.9434C13.9992 14.9746 14.0088 14.9994 14.0176 15.0242C14.1512 15.0066 14.2824 14.989 14.4032 14.973C14.4512 15.017 14.4864 15.0498 14.532 15.0922C14.6328 14.9682 14.7752 14.9498 14.8856 14.993C15.0384 15.0522 15.1888 15.0794 15.3448 15.0706C15.3768 15.1218 15.4008 15.161 15.4272 15.2042C15.4376 15.1754 15.4464 15.1506 15.4584 15.117C15.4744 15.129 15.4888 15.1402 15.5048 15.1522C15.5544 15.1234 15.6056 15.0938 15.6504 15.0674C15.6848 14.9522 15.6232 14.8346 15.6848 14.7514C15.66 14.6762 15.6024 14.5914 15.6248 14.5522C15.6832 14.4498 15.628 14.3274 15.7032 14.2338C15.7152 14.2186 15.7 14.1818 15.6984 14.1666C15.6624 14.1538 15.6416 14.1458 15.6256 14.1402C15.6592 14.0746 15.6864 14.021 15.7128 13.969C15.6744 13.8586 15.6248 13.765 15.6984 13.6458C15.7352 13.5866 15.7224 13.4794 15.6728 13.429C15.704 13.2098 15.7936 13.0122 15.6912 12.813C15.6488 12.7314 15.6464 12.6698 15.6896 12.6202C15.6728 12.541 15.6592 12.4754 15.6488 12.4226C15.5736 12.4074 15.5056 12.3938 15.4376 12.3802C15.368 12.3666 15.2992 12.3434 15.2296 12.3418C15.1624 12.341 15.0944 12.3626 15.0376 12.373C14.9992 12.3346 14.9736 12.309 14.9368 12.2722C14.7512 12.3034 14.556 12.3298 14.3568 12.3234C14.1264 12.3154 13.8952 12.3218 13.676 12.3218C13.6488 12.349 13.6328 12.365 13.608 12.3898C13.676 12.5418 13.4752 12.7002 13.608 12.8474C13.524 13.0154 13.4696 13.1746 13.4808 13.3482C13.5104 13.3778 13.536 13.4034 13.5728 13.4402C13.5576 13.5186 13.5248 13.6058 13.5264 13.6922C13.5288 13.8202 13.4856 13.9202 13.3776 14.0114C13.436 14.0202 13.476 14.0258 13.5312 14.0338C13.5096 14.1178 13.4896 14.1946 13.4696 14.2706C13.4336 14.2874 13.3984 14.3042 13.3632 14.3202C13.3536 14.2962 13.3432 14.2714 13.332 14.245H13.2672C13.2728 14.2994 13.2784 14.349 13.2848 14.4106C13.3584 14.4538 13.404 14.3746 13.4704 14.317L13.472 14.3194ZM11.9176 14.5162C11.9304 14.4466 11.9456 14.3866 11.9512 14.3266C11.968 14.1658 11.9288 14.0042 11.9896 13.8418C12.0176 13.7666 11.9792 13.6666 11.9688 13.549C11.9688 13.5498 11.988 13.5202 11.9952 13.4882C12.0144 13.4002 11.9752 13.3122 12.0296 13.2186C12.0752 13.1402 12.0256 13.0306 12.0776 12.9338C12.1064 12.881 12.1008 12.7754 12.0648 12.729C11.9896 12.6306 12.0024 12.5202 11.9888 12.381C11.96 12.441 11.9464 12.4698 11.9328 12.4986C11.9096 12.4986 11.8864 12.5042 11.8672 12.497C11.8424 12.4882 11.8208 12.457 11.7976 12.457C11.5608 12.4546 11.3384 12.3738 11.112 12.3218C10.9352 12.281 10.748 12.2666 10.6008 12.1418C10.572 12.1602 10.5504 12.1746 10.5304 12.1874C10.5136 12.1738 10.4976 12.161 10.4712 12.1386C10.3832 12.2314 10.2864 12.1978 10.1912 12.1386C10.1672 12.1682 10.1488 12.1906 10.1184 12.2282C10.1272 12.349 10.1072 12.4898 10.1304 12.6474C10.1984 12.5426 10.2144 12.4322 10.3208 12.3362C10.336 12.4898 10.2744 12.5954 10.256 12.7074C10.2368 12.8258 10.1288 12.929 10.1784 13.0682C10.2032 13.049 10.2176 13.0378 10.2576 13.0058C10.2368 13.1698 10.2408 13.3138 10.196 13.4402C10.1304 13.625 10.1832 13.809 10.1616 13.9914C10.2288 14.0634 10.2048 14.1522 10.2032 14.2346C10.2024 14.2794 10.1648 14.3242 10.1648 14.369C10.1648 14.421 10.1896 14.4738 10.204 14.5282C10.1912 14.5418 10.1768 14.557 10.1608 14.5738C10.1816 14.637 10.2024 14.701 10.2208 14.757C10.256 14.7746 10.2856 14.789 10.328 14.8098C10.488 14.8282 10.6632 14.7962 10.8408 14.8482C10.9784 14.8882 11.136 14.8322 11.2792 14.8962C11.3096 14.9098 11.3608 14.9122 11.3856 14.8962C11.4912 14.825 11.6072 14.8642 11.7176 14.8562C11.7944 14.8506 11.8728 14.8554 11.9608 14.8554C11.9336 14.7258 11.9864 14.6082 11.916 14.5178L11.9176 14.5162ZM12.0976 10.7578C12.1976 10.6642 12.2256 10.5666 12.2128 10.457C12.2056 10.3986 12.1656 10.3298 12.1856 10.2858C12.2608 10.1186 12.16 9.93062 12.2576 9.77062V8.97381C12.2072 8.94181 12.1688 8.91781 12.1368 8.89781C12.176 8.87062 12.216 8.84181 12.2624 8.80901C12.176 8.75781 12.2376 8.71062 12.2544 8.65541C12.1744 8.65942 12.1072 8.66262 12.04 8.66582C12.04 8.67382 12.04 8.68101 12.04 8.68901C12.0832 8.69781 12.1264 8.70661 12.1688 8.71542C12.1328 8.74501 12.0976 8.73941 12.0648 8.74661C12.0256 8.75461 11.9896 8.77382 11.9512 8.78822C11.7912 8.68262 11.6512 8.78821 11.5288 8.82501C11.4264 8.79941 11.3448 8.77861 11.2624 8.75781C11.252 8.76821 11.2416 8.77862 11.232 8.78822C11.216 8.77382 11.2008 8.75862 11.184 8.74582C11.1792 8.74262 11.1696 8.74582 11.1624 8.74582C10.864 8.81862 10.564 8.78982 10.3008 8.74582C10.2384 8.79862 10.2008 8.82981 10.1704 8.85461C10.1608 8.90901 10.1616 8.96102 10.1416 9.00342C10.0872 9.12022 10.0616 9.24022 10.0744 9.36822C10.0856 9.47862 10.0408 9.59701 10.1176 9.69861C10.0592 9.76661 10.1256 9.83381 10.1192 9.90261C10.1112 9.98901 10.1176 10.077 10.1176 10.1466C10.1584 10.2266 10.1912 10.293 10.2176 10.345C10.3368 10.4138 10.4496 10.4674 10.58 10.449C10.5936 10.4474 10.6112 10.4458 10.6216 10.4522C10.8008 10.5626 11.0128 10.5578 11.2064 10.6154C11.308 10.6458 11.4184 10.6946 11.5352 10.6674C11.5528 10.6634 11.5776 10.6714 11.5936 10.6818C11.6632 10.7266 11.7416 10.7274 11.82 10.733C11.9176 10.7394 12.0144 10.7514 12.096 10.7586L12.0976 10.7578ZM8.26483 12.0562C8.19043 12.0722 8.11763 12.0922 8.04323 12.1034C7.93363 12.121 7.82243 12.1306 7.71283 12.1498C7.67443 12.1562 7.61523 12.1746 7.60723 12.2002C7.56803 12.3274 7.41923 12.369 7.39603 12.493C7.28563 12.5378 7.16723 12.5466 7.10643 12.661C7.06083 12.7138 7.18483 12.7642 7.11203 12.8202C7.16963 12.8778 7.14883 12.9506 7.15043 13.0178C7.15203 13.0834 7.15043 13.1482 7.15043 13.2138C7.15043 13.2354 7.14163 13.2634 7.15203 13.2778C7.21763 13.3746 7.16243 13.4938 7.20083 13.585C7.24563 13.6914 7.22883 13.793 7.23763 13.8962C7.23923 13.9106 7.23203 13.9298 7.23843 13.9386C7.30323 14.0194 7.24403 14.137 7.28803 14.1994C7.35923 14.3002 7.28243 14.369 7.28083 14.4514C7.28083 14.473 7.27123 14.5034 7.28243 14.5154C7.35043 14.589 7.31443 14.6778 7.32563 14.7602C7.33123 14.8034 7.34403 14.8458 7.35443 14.8882C7.34483 14.8986 7.33603 14.909 7.32723 14.9194C7.34803 14.9402 7.36803 14.9602 7.39603 14.9882H7.83763C7.84883 15.021 7.85763 15.0466 7.86563 15.0706C7.96803 15.0658 8.06403 15.0802 8.16003 15.0298C8.22403 14.9962 8.30563 14.9858 8.38003 14.9858C8.47363 14.9858 8.55763 14.9682 8.62083 14.9258C8.63923 14.8266 8.65603 14.7386 8.67203 14.6546C8.65683 14.6322 8.64243 14.6098 8.64723 14.6178C8.65763 14.5322 8.68723 14.4634 8.66483 14.433C8.62803 14.3842 8.63843 14.3386 8.63523 14.2914C8.62483 14.137 8.66403 13.9786 8.59123 13.8298C8.62003 13.6082 8.51683 13.3946 8.55283 13.1626C8.52163 13.1378 8.48803 13.1114 8.44803 13.0794C8.53923 12.9274 8.45203 12.7778 8.46003 12.6274C8.46883 12.4594 8.35443 12.3162 8.37123 12.1498C8.34083 12.1482 8.32643 12.1474 8.30803 12.1458C8.29523 12.1178 8.28083 12.0882 8.26483 12.0538V12.0562Z" fill="#242424"/>
</svg>
