<svg width="144" height="144" viewBox="0 0 144 144" fill="none" xmlns="http://www.w3.org/2000/svg">
<rect width="144" height="144" fill="white"/>
<path d="M23.1161 25.3267C20.2993 25.3267 19.0639 25.376 17.2354 25.6223V21.6314C18.9156 21.8778 20.5464 21.9763 23.3137 21.9763H37.1505V21.6314C37.1505 19.6113 37.0517 18.5274 36.8046 17H41.1039C40.8568 18.5274 40.7579 19.8084 40.7579 21.6314V21.9763H55.1383C58.301 21.9763 59.9812 21.8778 61.4143 21.6314V25.6223C60.0306 25.4252 57.9057 25.3267 55.2866 25.3267H40.7579V28.9727H51.3826C54.4959 28.9727 55.5831 28.9234 56.9173 28.7264C56.7691 30.2537 56.7197 31.387 56.7197 33.8505V41.7338C56.7197 44.6407 56.7197 45.0841 56.9173 46.8579C55.5831 46.6608 54.15 46.6115 51.3332 46.6115H43.723C48.5164 51.5878 54.4465 54.6919 63.0945 56.8105C62.0567 58.2393 61.7108 58.8306 60.9201 60.5058C56.5714 59.0769 53.3593 57.6973 50.0484 55.7265C46.1444 53.4108 43.6241 51.3415 40.6097 47.9418C40.7085 49.1736 40.7579 50.7995 40.7579 51.6864V56.2685C40.7579 58.8799 40.8568 60.2594 41.1039 61.7868H36.8046C37.0517 60.0131 37.1505 58.7813 37.1505 56.2685V51.6864C37.1505 50.898 37.1999 49.2721 37.2987 47.9911C35.2726 50.4546 34.1361 51.5385 31.6652 53.4108C27.7613 56.367 23.4126 58.6335 18.0755 60.5058C17.2848 58.732 16.9389 58.1408 16 56.9583C20.5464 55.7265 23.8573 54.2977 27.7118 51.8834C30.7263 49.9619 32.4065 48.6316 34.2349 46.6115H27.5142C24.3515 46.6115 23.3137 46.6608 21.8312 46.8579C21.8642 46.5951 21.9136 46.1681 21.9795 45.5768C21.9795 45.2319 22.0289 43.5568 22.0289 41.7338V33.949C22.0289 31.2884 21.9795 30.2537 21.8312 28.7264C23.0666 28.9234 24.3515 28.9727 27.3165 28.9727H37.1505V25.3267H23.1161ZM25.6857 32.126V36.1169H37.1505V32.126H25.6857ZM25.6857 39.1717V43.5567H37.1505V39.1717H25.6857ZM40.7579 36.1169H53.0628V32.126H40.7579V36.1169ZM40.7579 43.5567H53.0628V39.1717H40.7579V43.5567Z" fill="black"/>
<path d="M88.4308 23.7502C86.4047 23.7502 84.5763 23.8487 83.0938 24.0458V19.9071C84.5268 20.1042 86.2565 20.2027 88.4308 20.2027H121.936C124.159 20.2027 125.84 20.1042 127.273 19.9071V24.0458C125.642 23.8487 124.011 23.7502 121.985 23.7502H110.965V30.5988H118.575C121.096 30.5988 122.578 30.5495 124.456 30.3524C124.209 32.2247 124.159 33.8014 124.159 36.3634V55.6774C124.159 58.5351 124.258 60.2596 124.456 61.5899H120.453V58.338H89.9133V61.5899H85.8611C86.1082 59.8654 86.1576 58.5351 86.1576 55.5789V36.3634C86.1576 34.097 86.0588 32.1262 85.8611 30.3524C87.3436 30.5002 89.1721 30.5988 91.6429 30.5988H98.413C98.5119 28.7758 98.5119 27.8396 98.5119 26.5586V23.7502H88.4308ZM89.9133 34.0477V54.7906H120.404V34.0477H110.965V42.5222C110.965 43.5076 111.311 43.7047 113.189 43.7047C115.413 43.7047 115.907 43.5569 116.104 42.8671C116.302 42.3744 116.351 41.4876 116.351 39.2704C117.439 39.8616 118.378 40.1573 119.465 40.3051C119.267 43.8525 119.119 44.5916 118.575 45.4785C117.834 46.6609 116.45 47.0551 112.991 47.0551C108.544 47.0551 107.407 46.3653 107.407 43.6062V34.0477H101.823C101.378 39.3689 100.637 41.931 98.6601 45.035C97.4247 46.9566 96.041 48.2376 93.1254 50.1099C92.1371 48.7303 91.6429 48.2376 90.3087 47.2522C93.1749 45.7741 94.7562 44.4438 95.8434 42.67C97.2765 40.4036 97.9189 38.0386 98.2154 34.0477H89.9133ZM102.119 26.5586C102.119 28.1353 102.119 28.9729 102.021 30.5988H107.407V23.7502H102.119V26.5586Z" fill="black"/>
<path d="M35.668 86.3689C35.6186 83.9546 35.5691 83.1663 35.322 81.7867H39.7202C39.4731 83.2649 39.3743 84.1024 39.3743 86.3689H54.6936C57.1644 86.3689 58.6963 86.2703 59.9812 86.024V90.1134C58.301 89.9163 56.7691 89.8178 54.6936 89.8178H39.3743V94.4492H52.7169C54.743 94.4492 55.8796 94.4 57.1644 94.2521C57.0162 95.5332 56.9667 96.6664 56.9667 98.4894V121.844C56.9667 125.539 55.7807 126.327 50.4931 126.327C49.5542 126.327 48.2199 126.278 46.0456 126.081C45.8479 124.406 45.6502 123.617 45.1066 122.287C47.1327 122.632 49.06 122.78 50.8884 122.78C52.7168 122.78 53.2111 122.533 53.2111 121.499V97.7996H22.8196V121.745C22.8196 124.603 22.869 125.637 23.0666 126.918H18.7673C18.965 125.49 19.0638 124.11 19.0638 121.548V98.5387C19.0638 96.7157 19.0144 95.5825 18.8662 94.2521C20.2004 94.4 21.4359 94.4492 23.4126 94.4492H35.668V89.8178H21.1888C19.0639 89.8178 17.4825 89.9163 16 90.1134V86.024C17.6308 86.2703 19.0144 86.3689 21.1888 86.3689H35.668ZM31.8135 104.796C31.1216 103.022 30.1333 101.396 28.799 99.5733L31.9617 98.2923C33.5431 100.756 34.2349 102.086 35.3715 104.796H39.5225C41.2521 102.332 42.0922 100.805 43.0806 98.3416L46.6386 99.327C45.4031 101.643 44.563 103.072 43.2288 104.796H46.4409C48.5164 104.796 49.5542 104.747 50.7402 104.599V108.146C49.3071 107.999 48.3187 107.949 46.3915 107.949H39.1766V112.729H46.0456C48.0717 112.729 49.1588 112.679 50.3448 112.531V116.079C49.1094 115.931 47.9729 115.882 45.9962 115.882H39.1766V119.873C39.1766 122.533 39.226 123.913 39.4237 125.539H35.322C35.5197 123.814 35.5691 122.435 35.5691 119.873V115.882H30.0344C28.1072 115.882 26.9212 115.931 25.5375 116.079V112.531C26.8223 112.679 27.9095 112.729 30.0839 112.729H35.5691V107.949H29.1449C27.2671 107.949 26.2293 107.999 24.9939 108.146V104.599C26.1799 104.747 27.2671 104.796 29.4414 104.796H31.8135Z" fill="black"/>
<path d="M85.5646 97.9969C83.6867 97.9969 82.4513 98.0954 81.117 98.2925V94.1045C82.2042 94.3016 83.3902 94.4001 85.5646 94.4001H93.8173V88.0442C93.8173 85.7285 93.7184 84.2997 93.5208 82.7723H98.0177C97.82 84.2505 97.7212 85.63 97.7212 88.0442V121.203C97.7212 123.618 97.82 125.046 98.0177 126.574H93.5208C93.7184 125.096 93.8173 123.568 93.8173 121.154V115.242C90.0616 117.36 87.5907 118.592 83.4397 120.415C82.6984 120.76 82.0066 121.105 81.463 121.351L79.9805 117.262C81.5618 116.917 82.5007 116.621 84.2797 115.833C88.1837 114.158 90.6051 112.975 93.8173 111.152V97.9969H85.5646ZM108.889 119.479C108.889 120.415 109.087 120.809 109.73 121.055C110.372 121.302 111.756 121.45 113.979 121.45C118.081 121.45 119.465 121.105 120.157 119.824C120.75 118.69 121.145 115.389 121.194 111.251C122.529 112.137 123.27 112.433 124.901 112.926C124.604 118.641 123.813 121.992 122.331 123.42C121.738 123.962 120.502 124.504 119.218 124.701C118.13 124.899 116.351 124.997 113.881 124.997C110.323 124.997 108.791 124.849 107.456 124.406C105.677 123.815 105.035 122.78 105.035 120.563V88.0442C105.035 85.4329 104.936 84.1026 104.738 82.7723H109.186C108.988 84.3983 108.889 85.7285 108.889 88.0442V99.2286C112.2 97.4056 115.709 95.0407 118.575 92.6757C119.761 91.7395 120.7 90.8527 121.441 89.9165L124.308 93.1684C123.616 93.6611 123.517 93.7104 122.529 94.5479C118.575 97.7505 114.375 100.51 108.889 103.417V119.479Z" fill="black"/>
</svg>
