<svg width="120" height="53" viewBox="0 0 120 53" fill="none" xmlns="http://www.w3.org/2000/svg">
<path fill-rule="evenodd" clip-rule="evenodd" d="M39.7235 0H34.6189V32.6086H39.7235V0ZM25.3545 32.6084H30.4591V9.72956H25.3545V32.6084ZM24.6953 5.42037C24.6953 7.24901 26.1081 8.73625 27.8441 8.73625H27.8459C29.68 8.73625 31.1182 7.24901 31.1182 5.42037C31.1182 3.59174 29.68 2.10449 27.9277 2.10449C26.1753 2.10449 24.6953 3.59174 24.6953 5.42037ZM16.091 32.6086H21.1955V9.72975H16.091V32.6086ZM15.4336 5.42055C15.4336 7.24919 16.8464 8.73643 18.5824 8.73643H18.5842C20.4183 8.73643 21.8565 7.24919 21.8565 5.42055C21.8565 3.59192 20.4183 2.10467 18.6659 2.10467C16.9136 2.10467 15.4336 3.59192 15.4336 5.42055ZM43.881 0H48.9856V32.6086H43.881V0ZM58.2491 0H53.1445V32.6086H58.2491V0ZM62.4102 0H67.5147V32.6086H62.4102V0ZM76.7774 32.6086H71.6729V9.72975H76.7774V32.6086ZM74.1625 8.73643C72.4265 8.73643 71.0137 7.24919 71.0137 5.42055C71.0137 3.59192 72.4937 2.10467 74.246 2.10467C75.9984 2.10467 77.4366 3.59192 77.4366 5.42055C77.4366 7.24919 75.9984 8.73643 74.1643 8.73643H74.1625ZM86.0402 0H80.9357V32.6086H86.0402V0ZM95.3029 32.6087H90.1984V9.72981H95.3029V32.6087ZM92.6898 8.7365C90.9538 8.7365 89.541 7.24925 89.541 5.42062C89.541 3.59198 91.021 2.10474 92.7734 2.10474C94.5257 2.10474 95.964 3.59198 95.964 5.42062C95.964 7.24925 94.5257 8.7365 92.6917 8.7365H92.6898ZM104.567 0H99.4629V32.6086H104.567V0ZM1.93578 51.1092C3.15245 51.1092 3.87155 50.3066 3.87155 48.8593C3.87155 47.4029 3.1361 46.593 1.93578 46.593C0.73545 46.593 0 47.412 0 48.8593C0 50.3066 0.719107 51.1092 1.93578 51.1092ZM1.93396 50.5372C1.16401 50.5372 0.719107 49.9598 0.719107 48.8593C0.719107 47.7589 1.16401 47.1651 1.93396 47.1651C2.70391 47.1651 3.14882 47.7589 3.14882 48.8593C3.14882 49.9598 2.70391 50.5372 1.93396 50.5372ZM5.63469 46.7093H5.63651V51.0257H6.33201V47.5428C6.65342 47.3612 7.18367 47.1959 7.54686 47.1959C8.23328 47.1959 8.47298 47.5355 8.47298 48.2056V51.0275H9.16848V48.1983C9.16848 47.1651 8.69634 46.593 7.72845 46.593C7.23997 46.593 6.66069 46.8073 6.25574 47.0888L6.13952 46.7093H5.63651V46.7074L5.63469 46.7093ZM11.1621 51.0257H11.8576V44.6809L11.1621 44.8371V51.0257ZM13.6895 45.1858L14.2597 44.5974L14.8389 45.1858L14.2597 45.7723L13.6895 45.1858ZM14.5974 46.7093V51.0276H13.911V46.7093H14.5974ZM16.6678 46.7092H16.666L16.6678 46.7074V46.7092ZM16.6678 46.7092H17.1708L17.2871 47.0888C17.692 46.8073 18.2713 46.593 18.7598 46.593C19.7277 46.593 20.1998 47.165 20.1998 48.1983V51.0275H19.5043V48.2056C19.5043 47.5355 19.2646 47.1959 18.5782 47.1959C18.215 47.1959 17.6848 47.3612 17.3633 47.5427V51.0257H16.6678V46.7092ZM25.501 48.6287C25.501 48.8175 25.4846 49.0173 25.461 49.1154H22.6736C22.7135 50.0578 23.1185 50.5209 24.0301 50.5209C24.4187 50.5209 24.8817 50.4228 25.2213 50.2558L25.4029 50.7533C24.9889 50.9839 24.4768 51.1092 23.9556 51.1092C22.6318 51.1092 21.9454 50.3411 21.9454 48.8593C21.9454 47.3775 22.6318 46.593 23.8067 46.593C24.889 46.593 25.501 47.3285 25.501 48.6287ZM22.6663 48.5778H24.8236C24.8236 47.61 24.4931 47.1632 23.7813 47.1632C23.0695 47.1632 22.6899 47.6663 22.6663 48.5778ZM31.321 47.1796C31.6842 47.1796 32.091 47.2776 32.3888 47.4284V47.4302L32.6194 46.9326C32.2725 46.7329 31.8004 46.593 31.2956 46.593C29.9463 46.593 29.2853 47.4284 29.2853 48.8593C29.2853 50.2903 29.9554 51.1092 31.2538 51.1092C31.824 51.1092 32.3452 50.9676 32.7011 50.7533L32.5104 50.2394C32.2144 50.3792 31.7586 50.5118 31.3373 50.5118C30.4784 50.5118 30.0063 49.9997 30.0063 48.8738C30.0063 47.6753 30.4857 47.1796 31.321 47.1796ZM37.9321 48.8593C37.9321 50.3066 37.213 51.1092 35.9963 51.1092C34.7797 51.1092 34.0605 50.3066 34.0605 48.8593C34.0605 47.412 34.796 46.593 35.9963 46.593C37.1966 46.593 37.9321 47.4029 37.9321 48.8593ZM34.7815 48.8593C34.7815 49.9597 35.2264 50.5372 35.9963 50.5372C36.7663 50.5372 37.2112 49.9597 37.2112 48.8593C37.2112 47.7588 36.7663 47.165 35.9963 47.165C35.2264 47.165 34.7815 47.7588 34.7815 48.8593ZM40.2001 46.7092H39.6953L39.6971 46.7111V51.0293H40.3926V47.5373L40.3988 47.5336C40.5317 47.4546 40.9635 47.1977 41.4604 47.1977C42.0724 47.1977 42.2303 47.5373 42.2303 48.0167V51.0293H42.924V47.5791C43.1728 47.3884 43.6014 47.1977 43.9664 47.1977C44.6437 47.1977 44.7436 47.57 44.7436 48.1238V51.0275H45.4464V48.0567C45.4464 47.0561 44.9906 46.593 44.148 46.593C43.6922 46.593 43.1946 46.7492 42.7479 47.1541C42.5336 46.7746 42.1704 46.593 41.6402 46.593C41.2824 46.593 40.7958 46.7002 40.3164 47.0724L40.2001 46.7092ZM47.4414 46.7092H47.9462L48.0625 47.0724C48.5419 46.7002 49.0285 46.593 49.3863 46.593C49.9165 46.593 50.2797 46.7746 50.494 47.1541C50.9407 46.7492 51.4383 46.593 51.8941 46.593C52.7366 46.593 53.1924 47.0561 53.1924 48.0567V51.0275H52.4897V48.1238C52.4897 47.57 52.3898 47.1977 51.7125 47.1977C51.3475 47.1977 50.9189 47.3884 50.6701 47.5791V51.0293H49.9764V48.0167C49.9764 47.5373 49.8185 47.1977 49.2065 47.1977C48.7096 47.1977 48.2778 47.4546 48.1449 47.5336L48.1387 47.5373V51.0293H47.4432V46.7111L47.4414 46.7092ZM58.1429 51.0258H58.664H58.6659V46.7075H57.9613V50.0325C57.747 50.2395 57.2912 50.5046 56.8118 50.5046C56.1417 50.5046 55.8857 50.1487 55.8857 49.5277V46.7075H55.1738V49.5458C55.1738 50.5119 55.6206 51.1075 56.6375 51.1075C57.2168 51.1075 57.7216 50.8696 58.0612 50.5282L58.1429 51.0258ZM60.6738 46.7092H60.6756V51.0257H61.3711V47.5427C61.6926 47.3612 62.2228 47.1959 62.586 47.1959C63.2724 47.1959 63.5121 47.5355 63.5121 48.2056V51.0275H64.2076V48.1983C64.2076 47.165 63.7355 46.593 62.7676 46.593C62.2791 46.593 61.6998 46.8073 61.2949 47.0888L61.1787 46.7092H60.6756V46.7074L60.6738 46.7092ZM66.5919 44.5973L66.0217 45.1857L66.5919 45.7722L67.1711 45.1857L66.5919 44.5973ZM66.9296 51.0275V46.7093H66.2432V51.0275H66.9296ZM68.504 46.8073L69.2159 46.7093V45.7577L69.9096 45.6015V46.7111H71.2824V47.2559H69.9096V49.5058C69.9096 50.2412 70.0911 50.4991 70.5215 50.4991C70.7957 50.4991 71.0844 50.4246 71.2751 50.3593L71.4404 50.855C71.2424 50.9785 70.7957 51.1111 70.3726 51.1111C69.57 51.1111 69.2159 50.6244 69.2159 49.5494V47.2577H68.504V46.811V46.8073ZM73.3635 52.838C74.0317 52.3822 74.5039 51.6794 74.8671 50.6952L76.3489 46.791L75.6879 46.593L74.3967 50.3066L73.1238 46.593L72.4373 46.8073L74.0426 51.0348C73.8011 51.5632 73.4052 52.0354 72.9331 52.424L73.3635 52.838ZM81.6345 48.5778C82.5697 48.9247 82.9075 49.2715 82.9075 49.8599C82.9075 50.579 82.4117 51.1092 81.353 51.1092C80.8645 51.1092 80.2943 50.993 79.873 50.8205L80.022 50.2485C80.3851 50.3883 80.9317 50.5299 81.3458 50.5299C81.8996 50.5299 82.2138 50.3066 82.2138 49.9434C82.2138 49.5802 82.0158 49.3805 81.2713 49.1081C80.3107 48.7612 80.0147 48.4126 80.0147 47.7588C80.0147 47.0561 80.6176 46.593 81.511 46.593C82.0086 46.593 82.4535 46.7092 82.8348 46.9163L82.6278 47.4374C82.3209 47.2794 81.9577 47.1723 81.56 47.1723C81.0062 47.1723 80.6993 47.3866 80.6993 47.7498C80.6993 48.113 80.9063 48.3054 81.6345 48.5778ZM85.3264 52.7054V50.9767C85.6224 51.0856 85.922 51.1092 86.2361 51.1092C87.4165 51.1092 88.1628 50.1177 88.1628 48.7685C88.1628 47.4193 87.658 46.593 86.5666 46.593C86.02 46.593 85.5642 46.8 85.2356 47.0561L85.1357 46.7092H84.6309V52.7054H85.3264ZM85.3264 50.4301V47.5101L85.3245 47.5082C85.5897 47.3267 86.011 47.1777 86.3832 47.1777C87.1441 47.1777 87.451 47.7243 87.451 48.7667C87.451 49.8853 86.997 50.5463 86.0618 50.5463C85.8403 50.5463 85.5661 50.5209 85.3264 50.4301ZM93.2372 48.6287C93.2372 48.8175 93.2209 49.0173 93.1973 49.1153H90.4098C90.4498 50.0578 90.8547 50.5209 91.7663 50.5209C92.1549 50.5209 92.618 50.4228 92.9576 50.2557L93.1392 50.7533C92.7251 50.9839 92.213 51.1092 91.6919 51.1092C90.3681 51.1092 89.6816 50.3411 89.6816 48.8593C89.6816 47.3775 90.3681 46.593 91.543 46.593C92.6253 46.593 93.2372 47.3285 93.2372 48.6287ZM90.4026 48.5778H92.5599C92.5599 47.6099 92.2294 47.1632 91.5175 47.1632C90.8057 47.1632 90.4262 47.6662 90.4026 48.5778ZM96.7623 47.1796C97.1273 47.1796 97.5323 47.2776 97.8301 47.4283V47.4302L98.0626 46.9326C97.7157 46.7328 97.2436 46.593 96.7387 46.593C95.3895 46.593 94.7285 47.4283 94.7285 48.8593C94.7285 50.2902 95.3986 51.1092 96.697 51.1092C97.2672 51.1092 97.7884 50.9676 98.1443 50.7533L97.9536 50.2394C97.6576 50.3792 97.2018 50.5118 96.7805 50.5118C95.9198 50.5118 95.4476 49.9997 95.4476 48.8738C95.4476 47.6753 95.927 47.1796 96.7623 47.1796ZM99.6133 45.1858L100.183 44.5974L100.763 45.1858L100.183 45.7723L99.6133 45.1858ZM100.521 46.7093V51.0276H99.8348V46.7093H100.521ZM104.883 48.5034H104.015C102.898 48.5034 102.303 48.9664 102.303 49.8508C102.303 50.6298 102.766 51.0929 103.536 51.0929C103.973 51.0929 104.529 50.8949 104.958 50.5481L105.039 51.0275H105.553V48.182C105.553 47.0888 105.05 46.593 104.015 46.593C103.543 46.593 103.015 46.7419 102.575 46.9907L102.782 47.4774C103.138 47.3121 103.594 47.1886 103.999 47.1886C104.576 47.1886 104.883 47.461 104.883 48.1475V48.5034ZM104.883 48.9919V50.0342H104.885C104.596 50.3157 104.066 50.5299 103.659 50.5299C103.214 50.5299 102.966 50.2739 102.966 49.8199C102.966 49.257 103.32 48.9919 104.106 48.9919H104.883ZM108.25 51.0257H107.555V44.8371L108.25 44.6809V51.0257ZM110.65 44.5974L110.08 45.1858L110.65 45.7723L111.23 45.1858L110.65 44.5974ZM110.988 51.0276V46.7093H110.302V51.0276H110.988ZM114.562 48.5778C115.497 48.9247 115.835 49.2715 115.835 49.8599C115.835 50.579 115.339 51.1092 114.281 51.1092C113.792 51.1092 113.222 50.993 112.801 50.8205L112.95 50.2485C113.313 50.3883 113.859 50.5299 114.273 50.5299C114.827 50.5299 115.142 50.3066 115.142 49.9434C115.142 49.5802 114.944 49.3805 114.199 49.1081C113.238 48.7612 112.942 48.4126 112.942 47.7588C112.942 47.0561 113.545 46.593 114.439 46.593C114.936 46.593 115.381 46.7092 115.763 46.9163L115.556 47.4374C115.249 47.2794 114.885 47.1723 114.488 47.1723C113.934 47.1723 113.627 47.3866 113.627 47.7498C113.627 48.113 113.834 48.3054 114.562 48.5778ZM117.776 46.7093L117.064 46.8073V46.811V47.2577H117.776V49.5494C117.776 50.6244 118.13 51.1111 118.933 51.1111C119.356 51.1111 119.803 50.9785 120.001 50.855L119.836 50.3593C119.645 50.4247 119.356 50.4991 119.082 50.4991C118.652 50.4991 118.47 50.2413 118.47 49.5058V47.2559H119.843V46.7111H118.47V45.6016L117.776 45.7577V46.7093Z" fill="#BDBDBD"/>
</svg>
