<svg width="661" height="416" viewBox="0 0 661 416" fill="none" xmlns="http://www.w3.org/2000/svg">
<path fill-rule="evenodd" clip-rule="evenodd" d="M286.856 206.148C267.227 197.388 258.57 175.63 258.57 153.222V136.096H241.392V153.222C241.392 175.758 232.359 198.806 212.207 208.079L222.802 221.727C236.105 215.026 245.01 202.669 250.179 187.474C255.091 201.773 263.739 213.361 276.785 219.667L286.856 206.148ZM313.718 245.81V126.823H296.67V164.042H273.81V177.689H296.67V245.81H313.718ZM166.607 196.234V182.715L166.617 182.705H121.282V172.92H154.342V159.4H88.9935V145.496H153.699V131.977H72.0733V172.93H104.234V182.715H59.0273V196.234H166.607ZM112.358 245.682C138.064 245.682 153.69 237.828 153.69 223.924C153.69 209.892 138.064 202.038 112.358 202.038C86.6512 202.038 71.1542 210.02 71.1542 223.924C71.1542 237.828 86.6512 245.682 112.358 245.682ZM112.358 214.908C128.25 214.908 136.384 217.746 136.384 223.924C136.384 230.112 128.25 232.812 112.358 232.812C96.4653 232.812 88.3313 230.103 88.3313 223.924C88.3313 217.746 96.4653 214.908 112.358 214.908ZM438.105 182.843C418.734 186.706 400.519 187.869 383.737 187.869H373.666V132.499H390.715V173.708C404.927 173.452 420.157 172.29 436.178 169.205L438.115 182.853L438.105 182.843ZM385.022 199.201H462.517V244.145H385.022V199.201ZM401.814 230.881H445.854V212.464H401.814V230.881ZM478.271 165.855H462.517V193.673H445.468V126.971H462.517V151.951H478.271V165.855ZM585.982 206.916V196.875H631.435V183.355H523.855V196.875H568.933V206.916H535.745V220.308H601.35V245.672H618.399V206.916H585.982ZM537.554 175.758H617.757V130.045H600.837V140.471H554.474V130.045H537.554V175.758ZM554.474 153.222H600.837V162.494H554.474V153.222Z" fill="white"/>
<path fill-rule="evenodd" clip-rule="evenodd" d="M423.99 316.986C423.941 314.572 423.891 313.783 423.644 312.404H428.042C427.795 313.882 427.697 314.72 427.697 316.986H443.016C445.487 316.986 447.019 316.887 448.303 316.641V320.73C446.623 320.533 445.091 320.435 443.016 320.435H427.697V325.066H441.039C443.065 325.066 444.202 325.017 445.487 324.869C445.338 326.15 445.289 327.283 445.289 329.106V352.461C445.289 356.156 444.103 356.944 438.815 356.944C437.876 356.944 436.542 356.895 434.368 356.698C434.17 355.023 433.973 354.234 433.429 352.904C435.455 353.249 437.382 353.397 439.211 353.397C441.039 353.397 441.533 353.15 441.533 352.116V328.417H411.142V352.362C411.142 355.22 411.191 356.254 411.389 357.535H407.09C407.287 356.107 407.386 354.727 407.386 352.165V329.156C407.386 327.333 407.337 326.2 407.188 324.869C408.523 325.017 409.758 325.066 411.735 325.066H423.99V320.435H409.511C407.386 320.435 405.805 320.533 404.322 320.73V316.641C405.953 316.887 407.337 316.986 409.511 316.986H423.99ZM420.136 335.413C419.444 333.639 418.456 332.013 417.121 330.19L420.284 328.909C421.865 331.373 422.557 332.703 423.694 335.413H427.845C429.574 332.95 430.414 331.422 431.403 328.959L434.961 329.944C433.725 332.26 432.885 333.689 431.551 335.413H434.763C436.839 335.413 437.876 335.364 439.062 335.216V338.763C437.629 338.616 436.641 338.566 434.714 338.566H427.499V343.346H434.368C436.394 343.346 437.481 343.296 438.667 343.149V346.696C437.432 346.548 436.295 346.499 434.318 346.499H427.499V350.49C427.499 353.15 427.548 354.53 427.746 356.156H423.644C423.842 354.431 423.891 353.052 423.891 350.49V346.499H418.357C416.429 346.499 415.243 346.548 413.86 346.696V343.149C415.145 343.296 416.232 343.346 418.406 343.346H423.891V338.566H417.467C415.589 338.566 414.552 338.616 413.316 338.763V335.216C414.502 335.364 415.589 335.413 417.764 335.413H420.136ZM93.8897 321.174C95.7182 320.927 96.9536 320.878 99.7704 320.878H113.805V324.524H103.971C101.006 324.524 99.7209 324.475 98.4855 324.278C98.6338 325.805 98.6832 326.84 98.6832 329.5V337.285C98.6832 338.555 98.6592 339.754 98.6446 340.481C98.6383 340.797 98.6338 341.024 98.6338 341.128C98.5679 341.719 98.5185 342.146 98.4855 342.409C99.968 342.212 101.006 342.163 104.168 342.163H110.889C109.061 344.183 107.381 345.513 104.366 347.435C100.512 349.849 97.2007 351.278 92.6543 352.51C93.5932 353.692 93.9391 354.283 94.7298 356.057C100.067 354.185 104.416 351.918 108.32 348.962C110.79 347.09 111.927 346.006 113.953 343.542C113.854 344.823 113.805 346.449 113.805 347.238V351.82C113.805 354.333 113.706 355.564 113.459 357.338H117.758C117.511 355.811 117.412 354.431 117.412 351.82V347.238C117.412 346.351 117.363 344.725 117.264 343.493C120.278 346.893 122.799 348.962 126.703 351.278C130.014 353.249 133.226 354.628 137.574 356.057C138.365 354.382 138.711 353.791 139.749 352.362C131.101 350.243 125.171 347.139 120.377 342.163H127.988C130.804 342.163 132.237 342.212 133.572 342.409C133.374 340.635 133.374 340.192 133.374 337.285V337.285V329.402C133.374 326.938 133.423 325.805 133.572 324.278C132.237 324.475 131.15 324.524 128.037 324.524H117.412V320.878H131.941C134.56 320.878 136.685 320.977 138.069 321.174V317.183C136.635 317.429 134.955 317.528 131.793 317.528H117.412V317.183C117.412 315.36 117.511 314.079 117.758 312.551H113.459C113.706 314.079 113.805 315.163 113.805 317.183V317.528H99.968C97.2007 317.528 95.5699 317.429 93.8897 317.183V321.174ZM102.34 331.668V327.677H113.805V331.668H102.34ZM102.34 339.108V334.723H113.805V339.108H102.34ZM129.717 331.668H117.412V327.677H129.717V331.668ZM129.717 339.108H117.412V334.723H129.717V339.108ZM249.014 319.597C250.496 319.4 252.325 319.301 254.351 319.301H264.432V322.11C264.432 323.391 264.432 324.327 264.333 326.15H257.563C255.092 326.15 253.264 326.051 251.781 325.904C251.979 327.677 252.078 329.648 252.078 331.915V351.13C252.078 354.086 252.028 355.417 251.781 357.141H255.833V353.889H286.373V357.141H290.376C290.178 355.811 290.079 354.086 290.079 351.229V331.915C290.079 329.353 290.129 327.776 290.376 325.904C288.498 326.101 287.015 326.15 284.495 326.15H276.885V319.301H287.905C289.931 319.301 291.562 319.4 293.193 319.597V315.458C291.759 315.655 290.079 315.754 287.856 315.754H254.351C252.176 315.754 250.447 315.655 249.014 315.458V319.597ZM255.833 350.342V329.599H264.135C263.839 333.59 263.196 335.955 261.763 338.221C260.676 339.995 259.095 341.325 256.229 342.803C257.563 343.789 258.057 344.282 259.045 345.661C261.961 343.789 263.345 342.508 264.58 340.586C266.557 337.482 267.298 334.92 267.743 329.599H273.327V339.157C273.327 341.917 274.463 342.606 278.911 342.606C282.37 342.606 283.754 342.212 284.495 341.03C285.039 340.143 285.187 339.404 285.385 335.856C284.297 335.708 283.359 335.413 282.271 334.822C282.271 337.039 282.222 337.926 282.024 338.418C281.827 339.108 281.332 339.256 279.109 339.256C277.231 339.256 276.885 339.059 276.885 338.073V329.599H286.324V350.342H255.833ZM268.039 322.111V322.11V319.301H273.327V326.15H267.94C268.039 324.525 268.039 323.687 268.039 322.111ZM560.033 328.91C561.367 328.712 562.603 328.614 564.481 328.614H572.733V341.769C569.521 343.592 567.1 344.775 563.196 346.45C561.417 347.238 560.478 347.534 558.896 347.879L560.379 351.968C560.67 351.836 561.004 351.676 561.364 351.503C561.678 351.352 562.011 351.192 562.356 351.032C566.507 349.209 568.978 347.977 572.733 345.859V351.771C572.733 354.185 572.634 355.713 572.437 357.191H576.934C576.736 355.663 576.637 354.235 576.637 351.82V318.661C576.637 316.247 576.736 314.867 576.934 313.389H572.437C572.634 314.917 572.733 316.346 572.733 318.661V325.017H564.481C562.306 325.017 561.12 324.919 560.033 324.722V328.91ZM588.646 351.672C588.003 351.426 587.805 351.032 587.805 350.096V334.034C593.291 331.127 597.491 328.368 601.445 325.165C602.304 324.436 602.491 324.304 602.98 323.958C603.054 323.906 603.134 323.85 603.224 323.785L600.357 320.534C599.616 321.47 598.677 322.357 597.491 323.293C594.625 325.658 591.116 328.023 587.805 329.846V318.661C587.805 316.346 587.904 315.015 588.102 313.389H583.654C583.852 314.72 583.951 316.05 583.951 318.661V351.18C583.951 353.397 584.593 354.432 586.372 355.023C587.707 355.466 589.239 355.614 592.797 355.614C595.267 355.614 597.046 355.516 598.134 355.318C599.419 355.121 600.654 354.579 601.247 354.037C602.729 352.609 603.52 349.258 603.817 343.543C602.186 343.05 601.445 342.755 600.11 341.868C600.061 346.006 599.666 349.307 599.073 350.441C598.381 351.722 596.997 352.067 592.895 352.067C590.672 352.067 589.288 351.919 588.646 351.672Z" fill="#B5B6B6"/>
<path fill-rule="evenodd" clip-rule="evenodd" d="M321.601 200.671L359.401 374.991L373.083 372.024L335.48 198.608L658.482 150.597L656.424 136.75L332.506 184.896L292.851 2.01758L279.169 4.98441L318.628 186.959L3.42383 233.811L5.48217 247.659L321.601 200.671Z" fill="#231916"/>
<path fill-rule="evenodd" clip-rule="evenodd" d="M289.431 2.75906C289.021 0.869966 287.158 -0.329395 285.269 0.0802167C283.379 0.489828 282.18 2.3533 282.59 4.2424L322.84 189.872L3.94096 237.273C2.02897 237.557 0.709386 239.338 0.993584 241.25C1.27778 243.162 3.05814 244.481 4.97013 244.197L324.326 196.728L371.273 413.241C371.682 415.13 373.546 416.33 375.435 415.92C377.324 415.51 378.523 413.647 378.114 411.758L331.265 195.697L657.97 147.135C659.882 146.851 661.201 145.071 660.917 143.159C660.633 141.247 658.853 139.927 656.941 140.211L329.779 188.841L289.431 2.75906Z" fill="white"/>
</svg>
